<svg width="163" height="60" viewBox="0 0 163 60" fill="none" xmlns="http://www.w3.org/2000/svg">
<path fill-rule="evenodd" clip-rule="evenodd" d="M35.8381 21.7125L41.585 27.4594L44.9295 24.1149L35.8381 15L26.7468 24.0913L30.0912 27.4358L35.8381 21.7125ZM20.9999 29.8382L24.3444 26.4937L27.7124 29.8382L24.3444 33.2062L20.9999 29.8382ZM47.3318 26.4937L43.9873 29.8382L47.3554 33.1826L50.6999 29.8382L47.3318 26.4937ZM35.8381 37.9875L30.0912 32.2406L26.7468 35.5851L35.8381 44.7L44.9295 35.6087L41.585 32.2406L35.8381 37.9875ZM35.8381 26.4937L32.4936 29.8382L35.8381 33.2062L39.2062 29.8382L35.8381 26.4937ZM58.3749 30.0871H64.1749C66.9249 30.0871 68.7249 29.026 68.7499 26.8556V26.8315C68.7499 25.2399 67.8749 24.4682 66.4749 23.9377C67.3499 23.4795 68.0749 22.7319 68.0749 21.4056V21.3573C68.0749 19.5246 66.5499 18.3188 64.0499 18.3188H58.3749V30.0871ZM63.6249 20.5857C64.7499 20.5857 65.3749 21.0197 65.3749 21.7914V21.8396C65.3749 22.7319 64.6249 23.0936 63.4499 23.0936H60.9749V20.5857H63.6249ZM64.0999 25.2399C65.4749 25.2399 66.0749 25.7222 66.0749 26.518V26.5421C66.0749 27.4103 65.3499 27.8202 64.1749 27.8202H60.9749V25.2399H64.0999ZM71.6749 18.3188V30.0871H74.3499V18.3188H71.6749ZM80.5999 22.6113L86.4999 30.0871H88.7999V18.3188H86.1499V25.5534L80.4249 18.3188H77.9499V30.0871H80.5999V22.6113ZM99.7249 27.4344L100.85 30.0871H103.675L98.4249 18.2224H95.9499L90.7249 30.0871H93.4749L94.5749 27.4344H99.7249ZM95.5249 25.1676L97.1499 21.3573L98.7749 25.1676H95.5249ZM108.275 22.6113L114.175 30.0871H116.475V18.3188H113.825V25.5534L108.1 18.3188H105.625V30.0871H108.275V22.6113ZM119.075 24.4441C119.125 27.7238 121.925 30.3523 125.325 30.3041C127.675 30.3041 129.075 29.4842 130.325 28.2061L128.625 26.5421C127.675 27.3862 126.825 27.9167 125.425 27.9167C123.325 27.9167 121.875 26.2527 121.875 24.2271V24.2029C121.875 22.1773 123.375 20.5374 125.425 20.5374C126.65 20.5374 127.6 21.0438 128.55 21.8638L130.25 19.9587C129.125 18.8976 127.75 18.15 125.45 18.15C121.7 18.15 119.075 20.875 119.075 24.2271V24.2512V24.4441ZM141.675 18.3188H132.475V30.0871H141.75V27.7961H135.125V25.3364H140.875V23.0213H135.125V20.6339H141.675V18.3188ZM110.775 33.5114H109.275V41.8312H115.325V40.5049H110.775V33.5114ZM124.025 41.8553H125.625L121.825 33.4632H120.425L116.65 41.8553H118.2L119.075 39.8537H123.15L124.025 41.8553ZM119.625 38.5515L121.1 35.2236L122.6 38.5515H119.625ZM132.75 37.5387C133.375 37.2011 133.975 36.6705 133.975 35.6577C133.975 34.3555 132.875 33.5114 131.15 33.5114H127.275V41.8553H131.275C133.2 41.8553 134.475 41.0595 134.475 39.5644C134.475 38.4309 133.75 37.8763 132.75 37.5387ZM130.925 34.8378C131.9 34.8378 132.45 35.2236 132.45 35.8988C132.45 36.6705 131.8 37.0323 130.825 37.0564H128.75V34.8378H130.925ZM131.15 38.2863C132.35 38.2863 132.925 38.6962 132.925 39.4197C132.925 40.1672 132.3 40.5531 131.275 40.5772H128.75V38.2863H131.15ZM142.5 39.492C142.5 38.0933 141.55 37.4663 139.725 37.0323C138.05 36.6464 137.675 36.357 137.675 35.7059C137.675 35.1513 138.2 34.7172 139.075 34.7172C139.95 34.7654 140.75 35.0548 141.425 35.5853L142.25 34.476C141.375 33.7767 140.275 33.415 139.125 33.4391C137.4 33.4391 136.175 34.4278 136.175 35.8747C136.175 37.4181 137.225 37.9486 139.05 38.3827C140.65 38.7203 141 39.0579 141 39.6608C141 40.3119 140.425 40.7219 139.475 40.7219C138.4 40.7219 137.575 40.3361 136.75 39.6367L135.825 40.6737C136.8 41.5418 138.1 42 139.425 42C141.225 42 142.5 41.0595 142.5 39.492ZM105.65 37.0081H58.3499V38.4068H105.65V37.0081Z" fill="white"/>
</svg>
