<svg width="163" height="60" viewBox="0 0 163 60" fill="none" xmlns="http://www.w3.org/2000/svg">
<path d="M131.5 20.3094H126.299L123.29 33.0077L122.867 34.7501C122.577 34.8293 122.286 34.9085 121.996 34.9613C121.468 35.0669 120.914 35.1197 120.333 35.1197C119.673 35.1197 119.145 35.0141 118.749 34.8293C118.379 34.6445 118.089 34.3805 117.93 34.0109C117.772 33.6677 117.719 33.2453 117.746 32.7701C117.772 32.2949 117.878 31.7669 118.01 31.2389L119.594 24.639L120.623 20.2566H115.317L112.915 30.3941C112.624 31.6085 112.466 32.7701 112.413 33.8789C112.36 34.9877 112.545 35.9381 112.915 36.8093C113.284 37.6541 113.944 38.3141 114.842 38.8157C115.739 39.3173 117.033 39.5549 118.67 39.5549C119.805 39.5549 120.808 39.4493 121.653 39.2645C121.679 39.2645 121.732 39.2381 121.758 39.2381C121.521 40.294 121.046 41.1388 120.306 41.7988C119.541 42.4588 118.432 42.802 116.954 42.802C116.32 42.802 115.739 42.7756 115.211 42.6964L114.182 46.9996C114.868 47.0788 115.634 47.1316 116.478 47.1316C118.062 47.1316 119.435 46.9468 120.623 46.6036C121.811 46.234 122.814 45.706 123.686 44.9668C124.53 44.2276 125.243 43.3036 125.824 42.2212C126.405 41.1124 126.854 39.8188 127.197 38.2877L130.787 23.187L131.5 20.3094Z" fill="white"/>
<path d="M109.631 31.1577C109.315 32.4777 109.209 33.8241 109.341 35.1441C109.473 36.4905 110.001 38.5233 110.503 39.5529H105.487C104.879 38.5233 104.906 38.0217 104.774 37.7049C104.114 38.2329 103.401 38.6817 102.609 39.0249C101.817 39.3681 100.946 39.5529 99.9426 39.5529C98.781 39.5529 97.7778 39.3417 96.9594 38.9457C96.141 38.5497 95.4546 37.9953 94.9266 37.3089C94.3986 36.6225 94.029 35.8305 93.7914 34.9065C93.5538 33.9825 93.4482 33.0057 93.4482 31.9497C93.4482 30.3393 93.7386 28.8345 94.293 27.409C94.8738 25.9834 95.6658 24.7426 96.669 23.6866C97.6722 22.6306 100.127 20.281 104.14 20.281C105.883 20.281 108.206 20.281 112.192 20.281L109.631 31.1577ZM105.962 24.6898C103.533 24.6898 103.084 24.6898 102.081 25.1914C101.368 25.561 100.787 26.1154 100.286 26.749C99.7842 27.3826 99.3618 28.1217 99.0714 28.9665C98.781 29.8113 98.6226 30.6825 98.6226 31.5801C98.6226 32.6889 98.8074 33.5865 99.177 34.2465C99.5466 34.9065 100.233 35.2233 101.236 35.2233C101.764 35.2233 102.266 35.1177 102.688 34.9065C103.111 34.6953 103.586 34.3521 104.061 33.8505C104.114 33.2697 104.193 32.6625 104.299 32.0289C104.404 31.3953 104.536 30.7881 104.642 30.2601L105.962 24.6898Z" fill="white"/>
<path d="M92.0739 27.9574C92.0739 29.6734 91.7835 31.231 91.2291 32.6566C90.6747 34.0822 89.8827 35.2965 88.8796 36.3261C87.8764 37.3557 86.6884 38.1477 85.2892 38.7285C83.89 39.3093 82.3852 39.5997 80.7484 39.5997C79.9564 39.5997 79.1644 39.5205 78.346 39.3885L76.762 45.7509H71.5613L77.6068 20.3542C78.478 20.3542 83.1244 20.3542 84.55 20.3542C85.87 20.3542 87.0052 20.5654 87.9292 20.9614C88.8796 21.3574 89.6451 21.9118 90.2787 22.5982C90.8859 23.2846 91.3347 24.103 91.6251 25.027C91.9419 25.9246 92.0739 26.9014 92.0739 27.9574ZM79.3228 35.1645C79.7188 35.2701 80.2204 35.2965 80.8012 35.2965C81.7252 35.2965 82.5436 35.1381 83.3092 34.7949C84.0484 34.4517 84.7084 33.9766 85.2364 33.3694C85.7644 32.7622 86.1604 32.023 86.4772 31.1782C86.7676 30.3334 86.926 29.383 86.926 28.3534C86.926 27.3502 86.7148 26.479 86.266 25.7926C85.8172 25.0798 85.0516 24.7102 83.9428 24.7102C83.1772 24.7102 81.8836 24.7102 81.8836 24.7102L79.3228 35.1645Z" fill="white"/>
<path d="M68.4934 35.1429C67.8335 35.1429 67.3055 35.0373 66.9095 34.8525C66.5399 34.6677 66.2495 34.4037 66.0911 34.0341C65.9327 33.6909 65.8799 33.2685 65.9063 32.7933C65.9327 32.3181 66.0383 31.7901 66.1703 31.2621L67.7543 24.6622H73.6678L74.7502 20.2798H68.8103L70.183 14.7358L64.6391 15.607L61.1279 30.4437C60.8375 31.6581 60.6791 32.8197 60.6263 33.9285C60.5735 35.0373 60.7583 35.9877 61.1279 36.8589C61.4975 37.7037 62.1575 38.3637 63.0551 38.8653C63.9527 39.3669 65.2463 39.6045 66.8831 39.6045C68.0183 39.6045 69.0214 39.4989 69.8662 39.3141C69.9454 39.2877 70.0774 39.2613 70.1566 39.2349L71.239 34.7205C70.8694 34.8525 70.4998 34.9317 70.1566 34.9845C69.6286 35.0901 69.0742 35.1429 68.4934 35.1429Z" fill="white"/>
<path d="M55.2447 20.3054L50.6511 39.5773H55.8519L60.4191 20.3054H55.2447Z" fill="white"/>
<path d="M60.9329 18.0886L61.7249 14.7358H56.5242L55.7322 18.0886H60.9329Z" fill="white"/>
<path d="M43.6703 20.3423C44.7791 20.3423 45.7559 20.5535 46.5743 20.9495C47.3927 21.3455 48.0527 21.8735 48.6071 22.5599C49.1351 23.2463 49.5311 24.0383 49.7951 24.9359C50.0591 25.8335 50.1911 26.8103 50.1911 27.8663C50.1911 29.4767 49.9007 30.9815 49.2935 32.4335C48.6863 33.859 47.8943 35.1262 46.8647 36.1822C45.8351 37.2382 44.6207 38.083 43.2215 38.6902C41.8223 39.2974 40.3175 39.6142 38.6807 39.6142C38.4696 39.6142 38.1 39.6142 37.572 39.5878C37.044 39.5878 36.4368 39.535 35.7768 39.4294C35.0904 39.3238 34.3776 39.1918 33.6384 39.007C32.8728 38.8222 32.16 38.5582 31.5 38.2414L37.5456 12.8448L42.9575 12L40.8191 21.0023C41.2943 20.7911 41.7167 20.6327 42.1919 20.5271C42.6407 20.3951 43.1423 20.3423 43.6703 20.3423ZM39.1295 35.2846C39.9479 35.2846 40.7135 35.0998 41.4263 34.6774C42.1391 34.2814 42.7727 33.7534 43.3007 33.0934C43.8287 32.4335 44.2511 31.6679 44.5415 30.8495C44.8319 30.0047 44.9903 29.1335 44.9903 28.2359C44.9903 27.1271 44.8055 26.2559 44.4359 25.6223C44.0663 24.9887 43.3007 24.6983 42.2975 24.6983C41.9807 24.6983 41.6375 24.7247 41.1095 24.8567C40.5815 24.9623 40.1327 25.2263 39.7103 25.5959L37.44 35.179C38.1264 35.2846 38.8655 35.2846 39.1295 35.2846Z" fill="white"/>
</svg>
