<svg width="163" height="60" viewBox="0 0 163 60" fill="none" xmlns="http://www.w3.org/2000/svg">
<path fill-rule="evenodd" clip-rule="evenodd" d="M28.1287 39.401H37.3812C37.9674 39.401 38.5096 39.0902 38.8059 38.5844L43.4837 30.5979C43.7837 30.0857 43.7857 29.4518 43.4888 28.9377L38.8043 20.8255C38.5093 20.3147 37.9642 20 37.3744 20H28.1355C27.5457 20 27.0006 20.3147 26.7056 20.8255L22.0211 28.9377C21.7242 29.4518 21.7262 30.0857 22.0262 30.5979L26.704 38.5844C27.0003 39.0902 27.5425 39.401 28.1287 39.401ZM39.566 29.7693C39.566 33.4169 36.609 36.3739 32.9613 36.3739V35.2732C36.001 35.2732 38.4652 32.809 38.4652 29.7693C38.4652 26.7296 36.001 24.2655 32.9613 24.2655C29.9217 24.2655 27.4575 26.7296 27.4575 29.7693C27.4575 31.13 27.9513 32.3753 28.7694 33.336L29.7465 32.3588C29.1754 31.6507 28.8335 30.7499 28.8335 29.7693C28.8335 27.4895 30.6816 25.6414 32.9613 25.6414C35.2411 25.6414 37.0892 27.4895 37.0892 29.7693C37.0892 32.0491 35.2411 33.8972 32.9613 33.8972V32.7964C34.6332 32.7964 35.9885 31.4411 35.9885 29.7693C35.9885 28.0975 34.6332 26.7422 32.9613 26.7422C31.2895 26.7422 29.9342 28.0975 29.9342 29.7693C29.9342 30.4457 30.1561 31.0703 30.531 31.5743L31.7271 30.3782C31.6364 30.1947 31.5854 29.988 31.5854 29.7693C31.5854 29.0094 32.2014 28.3934 32.9613 28.3934C33.7213 28.3934 34.3373 29.0094 34.3373 29.7693C34.3373 30.5292 33.7213 31.1453 32.9613 31.1453C32.8263 31.1453 32.6958 31.1258 32.5725 31.0896L28.7631 34.899L28.2022 34.3381L28.1968 34.3432C28.1492 34.2936 28.1024 34.2433 28.0563 34.1922L27.9847 34.1206L27.9889 34.1164C26.9726 32.9549 26.3567 31.434 26.3567 29.7693C26.3567 26.1217 29.3137 23.1647 32.9613 23.1647C36.609 23.1647 39.566 26.1217 39.566 29.7693Z" fill="white"/>
<path fill-rule="evenodd" clip-rule="evenodd" d="M121.986 36.0987V34.998C121.711 35.3649 120.693 36.0987 118.821 36.0987C116.482 36.0987 114.418 34.31 114.418 31.1453C114.418 27.9806 116.895 26.467 119.096 26.467C120.858 26.467 121.573 27.2009 121.711 27.5678V21.9263H124.188V36.0987H121.986ZM121.848 31.4205C121.848 32.9403 120.74 34.1724 119.372 34.1724C118.004 34.1724 116.895 32.9403 116.895 31.4205C116.895 29.9006 118.004 28.6686 119.372 28.6686C120.74 28.6686 121.848 29.9006 121.848 31.4205Z" fill="white"/>
<path fill-rule="evenodd" clip-rule="evenodd" d="M54.7015 23.7151H48.9225V36.0987H53.3256C55.4354 36.007 59.655 34.6127 59.655 29.7693C59.655 24.9259 56.3527 23.7151 54.7015 23.7151ZM51.3992 33.622V25.9166H52.7752C55.3895 25.9166 56.903 27.2926 56.903 30.0445C56.903 32.7964 54.885 33.5761 53.8759 33.622H51.3992Z" fill="white"/>
<path fill-rule="evenodd" clip-rule="evenodd" d="M62.2693 29.9069L60.8933 28.531C61.6639 26.8798 63.9663 26.467 65.0212 26.467C68.1034 26.467 68.9656 28.6686 69.0115 29.7693V36.0987H66.5348V34.998C65.8468 36.5115 60.4805 37.1995 60.4805 33.4844C60.4805 30.5123 64.5167 30.5032 66.5348 30.8701C66.5348 29.1089 65.5257 28.6686 65.0212 28.6686C63.3701 28.6686 62.4986 29.4941 62.2693 29.9069ZM66.5348 32.246C65.4799 32.1084 63.315 32.136 63.0949 33.3468C62.8197 34.8604 66.2596 34.998 66.5348 32.246Z" fill="white"/>
<path fill-rule="evenodd" clip-rule="evenodd" d="M70.9378 26.467V39.401H73.277V34.998C73.598 35.4566 74.6254 36.3739 76.1665 36.3739C78.0928 36.3739 80.8448 35.2732 80.8448 31.4205C80.8448 27.5678 77.9552 26.467 76.1665 26.467C74.7355 26.467 73.6439 27.3843 73.277 27.843V26.467H70.9378ZM78.368 31.4205C78.368 32.9403 77.2592 34.1724 75.8913 34.1724C74.5234 34.1724 73.4146 32.9403 73.4146 31.4205C73.4146 29.9006 74.5234 28.6686 75.8913 28.6686C77.2592 28.6686 78.368 29.9006 78.368 31.4205Z" fill="white"/>
<path fill-rule="evenodd" clip-rule="evenodd" d="M82.4959 39.401V26.467H84.6974V27.843C85.0644 27.3843 86.156 26.467 87.587 26.467C89.3757 26.467 92.1276 27.2926 92.1276 31.4205C92.1276 35.5484 89.2381 36.3739 87.587 36.3739C86.266 36.3739 85.2937 35.4566 84.9726 34.998V39.401H82.4959ZM87.1742 34.1724C88.542 34.1724 89.6509 32.9403 89.6509 31.4205C89.6509 29.9006 88.542 28.6686 87.1742 28.6686C85.8063 28.6686 84.6974 29.9006 84.6974 31.4205C84.6974 32.9403 85.8063 34.1724 87.1742 34.1724Z" fill="white"/>
<path fill-rule="evenodd" clip-rule="evenodd" d="M96.3931 36.0987H93.7788V23.7151H99.2826C100.521 23.7151 102.998 24.4581 102.998 27.4302C103.044 28.3016 102.695 30.2922 100.934 31.2829L104.511 36.0987H101.622L98.3195 31.4205H96.3931V36.0987ZM96.2555 25.6414V29.3565H99.0074C99.4661 29.3565 100.383 29.0263 100.383 27.7054C100.383 26.3845 100.108 25.6414 98.3195 25.6414H96.2555Z" fill="white"/>
<path fill-rule="evenodd" clip-rule="evenodd" d="M106.162 29.9069L104.924 28.3934C105.153 27.7512 106.328 26.467 109.19 26.467C112.052 26.467 112.859 28.5768 112.905 29.6317V36.0987H110.703V34.998C107.814 37.6123 104.511 35.6859 104.511 33.3468C104.511 31.4755 106.346 30.916 107.263 30.8701H110.428C110.428 30.1362 110.098 28.6686 108.777 28.6686C107.456 28.6686 106.483 29.4941 106.162 29.9069ZM110.444 32.3025C109.389 32.1649 107.224 32.1924 107.004 33.4033C106.728 34.9168 110.168 35.0545 110.444 32.3025Z" fill="white"/>
<path fill-rule="evenodd" clip-rule="evenodd" d="M131.893 34.998V36.0987H134.094V29.9069C134.094 29.3565 133.406 26.467 130.379 26.467C127.958 26.467 126.527 27.843 126.114 28.531L127.352 29.9069C127.536 29.4941 128.288 28.6686 129.829 28.6686C131.37 28.6686 131.664 30.0445 131.618 30.7325H129.829C126.114 30.7325 125.701 32.5212 125.701 33.4844C125.701 34.4476 126.664 36.0987 128.866 36.0987C130.627 36.0987 131.618 35.3649 131.893 34.998ZM131.633 32.3025C130.578 32.1649 128.414 32.1924 128.193 33.4033C127.918 34.9168 131.358 35.0545 131.633 32.3025Z" fill="white"/>
<path d="M136.158 26.7422H138.497V27.843C138.956 27.2926 140.259 26.3019 141.8 26.7422V28.9437C140.699 28.8979 138.497 29.3015 138.497 31.2829V36.0987H136.158V26.7422Z" fill="white"/>
</svg>
