<svg width="163" height="54" viewBox="0 0 163 54" fill="none" xmlns="http://www.w3.org/2000/svg">
<g clip-path="url(#clip0)">
<path d="M42.6803 13.819C39.0983 15.3371 35.6425 16.8299 32.1867 18.2974C31.8335 18.4492 31.5056 18.601 31.1524 18.7528C29.4624 19.4866 29.4624 19.4866 29.1092 17.7408C28.7813 16.0456 28.4533 14.3504 28.075 12.6805C27.9236 11.9973 27.9236 11.6431 28.8317 11.6431C38.6191 11.6684 48.4064 11.6684 58.1685 11.6431C58.8496 11.6431 59.127 11.719 58.9505 12.5287C58.4964 14.4516 58.0928 16.3745 57.7649 18.3227C57.5883 19.3854 57.2099 19.3095 56.4027 18.9552C52.7451 17.3866 49.037 15.8685 45.3289 14.2998C45.1019 14.1986 44.8749 14.1227 44.4713 13.9708C44.4713 14.4516 44.4713 14.8058 44.4713 15.16C44.4713 20.6251 44.4713 26.0903 44.4713 31.5807C44.4713 32.2386 44.4965 32.6434 43.5884 32.6434C42.7307 32.6434 42.6803 32.3145 42.6803 31.606C42.7055 26.1409 42.7055 20.6758 42.7055 15.1853C42.6803 14.7805 42.6803 14.3757 42.6803 13.819ZM46.9685 13.1612C46.9685 13.2371 46.9433 13.2877 46.9433 13.3636C50.0965 14.6793 53.2496 15.995 56.4532 17.3359C56.7559 15.8685 57.0081 14.5275 57.2856 13.1612C53.7541 13.1612 50.3487 13.1612 46.9685 13.1612ZM39.956 13.3383C39.956 13.2624 39.9308 13.2118 39.9308 13.1359C36.7776 13.1359 33.6497 13.1359 30.4966 13.1359C29.9921 13.1359 29.6894 13.1865 29.8407 13.819C30.0678 14.7552 30.2443 15.7167 30.4209 16.6528C30.5218 17.1335 30.6732 17.3613 31.2533 17.1082C34.129 15.8179 37.0299 14.6034 39.956 13.3383Z" fill="white"/>
<path d="M51.5091 32.2132C51.5091 34.5663 51.4838 36.9193 51.5343 39.2977C51.5595 40.0061 51.3325 40.2085 50.6262 40.2085C45.9091 40.1832 41.2172 40.1832 36.5001 40.2085C35.7938 40.2085 35.592 40.0061 35.592 39.2977C35.6173 34.5916 35.6173 29.8602 35.592 25.1541C35.592 24.4456 35.7686 24.1926 36.5001 24.2432C37.2064 24.2938 37.938 24.2938 38.6443 24.2432C39.3001 24.2179 39.6785 24.2432 39.6785 25.1288C39.6785 26.0143 39.2749 26.1155 38.619 25.989C37.3326 25.7613 37.0299 26.2674 37.0803 27.5324C37.1812 30.8216 37.156 34.1108 37.1055 37.3747C37.0803 38.2097 37.3326 38.4121 38.1398 38.4121C41.6713 38.3615 45.2028 38.3615 48.7343 38.4121C49.5667 38.4121 49.7685 38.2097 49.7685 37.3747C49.7181 33.959 49.7181 30.5433 49.7685 27.1529C49.7937 26.2168 49.5667 25.8625 48.6082 25.989C48.0028 26.0649 47.4226 26.1915 47.4226 25.1288C47.4226 24.0661 48.0028 24.2432 48.6082 24.2432C51.5091 24.2432 51.5091 24.2179 51.5091 27.1529C51.5091 28.8481 51.5091 30.518 51.5091 32.2132Z" fill="white"/>
<path d="M65.9126 17.4371C65.9126 16.2226 65.9126 15.0082 65.9126 13.7937C65.9126 12.9587 66.19 11.9214 64.727 12.0732C64.5504 12.0985 64.3991 11.9467 64.3991 11.7696C64.3991 11.4913 64.6009 11.4406 64.8279 11.4406C67.2495 11.5166 69.6963 11.137 72.0927 11.719C73.4044 12.0226 74.4134 12.8322 75.0441 14.072C77.2891 18.3986 74.59 23.2565 69.772 23.5095C68.2333 23.5854 66.6693 23.5348 65.1306 23.5095C64.8783 23.5095 64.4747 23.6613 64.3991 23.2565C64.3234 22.8263 64.7774 22.8263 65.0297 22.8516C65.8621 22.8769 65.963 22.4468 65.9378 21.7384C65.8873 20.2962 65.9126 18.854 65.9126 17.4371ZM67.5018 17.3865C67.5018 18.8287 67.5018 20.2456 67.5018 21.6878C67.5018 21.9914 67.3504 22.3456 67.8045 22.548C69.1162 23.1553 71.5378 22.6239 72.5972 21.4601C74.0098 19.8914 74.3882 16.7287 73.354 14.6539C72.2945 12.5286 70.4279 12.0985 68.2585 12.1744C67.6279 12.1997 67.4765 12.4021 67.4765 12.984C67.527 14.4262 67.5018 15.8937 67.5018 17.3865Z" fill="white"/>
<path d="M125.847 16.9564C125.847 18.4239 125.847 19.8914 125.847 21.3842C125.847 22.1179 125.646 22.9782 126.856 22.9023C127.033 22.9023 127.159 23.0288 127.134 23.2312C127.109 23.4589 126.957 23.4842 126.781 23.4842C125.772 23.4842 124.763 23.4842 123.754 23.4842C123.577 23.4842 123.426 23.4336 123.375 23.2312C123.35 23.0288 123.476 22.9023 123.653 22.9023C124.561 22.877 124.384 22.1938 124.384 21.6372C124.384 20.1191 124.359 18.601 124.384 17.0829C124.384 16.5516 124.233 16.3998 123.678 16.3492C120.752 16.1721 120.752 16.1468 120.752 19.0058C120.752 19.9673 120.777 20.9541 120.752 21.9155C120.727 22.5481 120.853 22.877 121.559 22.7758C121.811 22.7505 122.215 22.6746 122.164 23.1553C122.139 23.5095 121.837 23.4842 121.584 23.4842C120.575 23.4842 119.566 23.4842 118.557 23.4842C118.356 23.4842 118.103 23.5095 118.078 23.2059C118.053 22.9276 118.28 22.8517 118.507 22.8517C119.289 22.8517 119.314 22.3709 119.289 21.7637C119.264 20.2456 119.264 18.7275 119.289 17.2094C119.289 16.6528 119.289 16.1974 118.532 16.2986C118.305 16.3239 117.851 16.501 117.826 16.0456C117.801 15.7166 118.078 15.3371 118.431 15.3624C119.188 15.4383 119.238 15.0335 119.365 14.4263C119.642 13.0853 120.575 12.0985 121.534 11.2636C122.089 10.7828 122.997 11.1118 123.728 11.0865C125.797 11.0612 125.797 11.0865 125.797 13.1106C125.847 14.4516 125.847 15.7166 125.847 16.9564ZM124.334 12.4021C123.779 12.4527 123.274 12.5539 122.745 12.5792C121.231 12.6298 120.474 13.6166 120.802 15.1094C120.903 15.5142 121.105 15.5142 121.408 15.5395C124.258 15.8937 124.561 15.6407 124.41 12.7564C124.41 12.6298 124.359 12.5033 124.334 12.4021Z" fill="white"/>
<path d="M92.3737 23.6107C91.1376 22.0926 90.7845 22.0673 92.8529 20.5999C91.2133 19.183 90.9106 18.1203 91.7935 16.8046C92.7268 15.3877 94.7953 14.8058 96.3592 15.5902C96.8385 15.8432 97.2169 16.0709 97.6457 15.5395C97.9736 15.1347 98.4277 15.0588 98.8817 15.2359C99.1592 15.3371 99.0331 15.6914 99.0583 15.9191C99.134 16.6275 98.579 16.4251 98.2006 16.501C97.8727 16.5769 97.6457 16.7034 97.6205 17.1588C97.4439 19.3854 96.6367 20.2709 94.4926 20.7264C94.2403 20.777 93.9124 20.7517 93.7863 20.8782C93.4583 21.2324 92.8529 21.536 92.9791 22.042C93.1052 22.5734 93.7358 22.4469 94.1899 22.4469C95.1232 22.4469 96.0313 22.4216 96.9646 22.4469C97.6709 22.4722 98.3268 22.6746 98.6295 23.383C98.9574 24.0915 98.806 24.7746 98.352 25.4072C97.2673 26.9758 94.6944 27.9879 92.8025 27.5578C91.8944 27.3554 91.1881 26.8999 90.8854 25.9385C90.5575 24.9011 91.3142 24.5216 91.9196 24.0409C92.071 23.8891 92.1971 23.7372 92.3737 23.6107ZM94.9718 23.7119C94.6691 23.7119 94.3917 23.7372 94.089 23.7119C92.9538 23.5601 92.3989 24.3445 92.2728 25.2047C92.1466 26.0903 92.9538 26.4192 93.7358 26.6469C94.6691 26.8999 95.4763 26.6469 96.2583 26.1915C96.9142 25.7867 97.343 25.1794 97.1664 24.3951C96.9898 23.5348 96.1826 23.8132 95.6025 23.7372C95.4007 23.6866 95.1736 23.7119 94.9718 23.7119ZM96.1322 18.2468C96.107 16.9817 95.325 15.995 94.3664 15.9697C93.4583 15.9444 92.8277 16.6528 92.8277 17.7155C92.8277 18.9806 93.6854 20.0179 94.7448 19.8914C95.7034 19.7902 96.2079 19.2083 96.1322 18.2468Z" fill="white"/>
<path d="M86.4206 32.4156C87.0007 31.9855 87.3287 31.7578 87.6566 31.5048C89.0944 30.4168 90.9358 30.8216 91.6674 32.4915C92.4241 34.2121 92.525 36.0591 91.3395 37.6531C90.1791 39.1712 88.5142 39.6772 86.4962 39.1712C86.4962 39.7278 86.5467 40.2844 86.4962 40.7905C86.4206 41.8025 86.4458 42.6628 87.8332 42.4604C88.0097 42.4351 88.2872 42.4604 88.2872 42.7387C88.2872 42.8399 88.1611 42.9917 88.0854 42.9917C86.6728 43.017 85.235 42.9917 83.7215 42.8146C85.462 42.6375 85.0584 41.423 85.0584 40.4615C85.0836 38.0326 85.0584 35.5783 85.0584 33.1494C85.0584 32.5928 85.235 31.859 84.226 32.1626C83.999 32.2385 83.7972 32.1373 83.7719 31.8843C83.7215 31.5807 83.9737 31.5807 84.1503 31.5301C84.4782 31.4289 84.8062 31.353 85.1089 31.2518C86.017 30.9229 86.6476 30.9229 86.4206 32.4156ZM86.5215 35.0976C86.5215 35.6542 86.5215 35.9579 86.5215 36.2615C86.5215 37.7796 86.8746 38.2856 88.1106 38.488C89.2205 38.6651 90.1034 38.1338 90.4566 36.894C90.8349 35.5783 90.8097 34.2121 90.1791 32.9723C89.6998 32.0361 88.9683 31.859 87.9593 32.2891C86.4962 32.9217 86.2944 34.0096 86.5215 35.0976Z" fill="white"/>
<path d="M66.3414 32.5421C66.3414 35.7048 68.0063 38.0326 70.4026 38.4374C72.0423 38.7157 73.1269 38.1591 73.8837 36.6916C74.0098 36.4386 74.0855 36.0844 74.3125 35.9326C74.59 35.7301 75.1702 35.5024 75.1702 36.0591C75.1702 36.7675 75.1954 37.6531 74.59 38.1591C72.3702 40.1073 68.3594 39.829 66.2657 37.6784C64.1721 35.5277 63.9955 31.4795 65.8874 29.2023C67.9306 26.7481 72.017 26.0903 74.5648 27.8108C75.0188 28.1144 75.4224 29.8349 75.0441 30.1891C74.6909 30.5433 74.2116 30.4927 74.0603 29.9614C73.808 29.0505 73.3792 28.3674 72.4711 28.0132C71.5378 27.6336 70.6044 27.583 69.6459 27.7855C67.9054 28.1397 66.6693 29.6325 66.4423 31.6819C66.3414 32.0361 66.3414 32.4156 66.3414 32.5421Z" fill="white"/>
<path d="M111.091 16.7034C111.772 16.248 112.327 15.8938 112.882 15.5142C114.269 14.6287 115.783 15.2612 115.934 16.8805C116.085 18.4745 116.01 20.0685 116.01 21.6625C116.01 22.295 115.959 22.8517 116.842 22.8264C117.069 22.8264 117.372 22.877 117.296 23.2565C117.246 23.5348 116.968 23.4589 116.792 23.4589C115.959 23.4589 115.101 23.4589 114.269 23.4589C114.067 23.4589 113.84 23.5095 113.765 23.2059C113.739 23.0035 113.84 22.877 114.017 22.8517C114.698 22.7505 114.572 22.2444 114.572 21.789C114.572 20.4733 114.597 19.183 114.572 17.8673C114.521 16.5263 113.765 16.0962 112.554 16.6275C111.494 17.1082 110.763 17.7155 110.99 19.0817C111.141 20.0179 111.015 21.0047 111.015 21.9914C111.015 22.2444 110.864 22.5987 111.292 22.7252C111.57 22.8264 112.125 22.7505 111.923 23.2565C111.797 23.6107 111.318 23.4083 111.015 23.4336C110.309 23.4589 109.577 23.4336 108.871 23.4336C108.669 23.4336 108.417 23.4589 108.366 23.1806C108.316 22.9276 108.543 22.8011 108.745 22.8011C109.502 22.8011 109.552 22.3456 109.552 21.7131C109.527 20.2456 109.527 18.7781 109.552 17.2853C109.552 16.7287 109.577 16.248 108.77 16.4504C108.593 16.501 108.341 16.501 108.291 16.2227C108.215 15.8431 108.518 15.8431 108.77 15.7925C109.022 15.7166 109.249 15.6407 109.502 15.5648C110.763 15.2612 110.763 15.2612 111.091 16.7034Z" fill="white"/>
<path d="M131.8 22.5227C132.406 20.7263 132.961 19.0817 133.516 17.4118C133.591 17.2094 133.692 16.9817 133.617 16.8299C133.289 16.0202 133.264 16.0202 134.247 16.0202C134.55 16.0202 134.827 15.9949 135.13 16.0202C135.433 16.0455 135.912 15.8431 135.988 16.2985C136.089 16.8552 135.534 16.6022 135.256 16.7034C134.802 16.8552 134.802 17.26 134.651 17.5889C133.364 20.7769 132.154 23.9902 130.791 27.1529C130.337 28.2156 129.656 28.1903 128.824 28.1397C128.193 28.0891 128.42 27.6083 128.42 27.2794C128.42 26.9505 128.219 26.571 128.874 26.4698C130.438 26.2421 131.271 24.6228 130.691 23.1806C130.009 21.4601 129.354 19.7396 128.698 18.0191C128.446 17.3865 128.395 16.5769 127.386 16.6022C127.184 16.6022 127.109 16.3998 127.159 16.2479C127.21 16.0708 127.386 16.0202 127.563 16.0202C128.496 16.0202 129.404 16.0202 130.337 16.0202C130.59 16.0202 130.867 16.0202 130.892 16.3745C130.892 16.6781 130.615 16.6528 130.413 16.6528C129.656 16.6781 129.909 17.1335 130.035 17.513C130.59 19.1576 131.17 20.7769 131.8 22.5227Z" fill="white"/>
<path d="M107.433 19.3347C107.433 21.8396 105.516 23.7878 103.069 23.7625C101.001 23.7372 99.3862 21.9408 99.3862 19.6131C99.3862 17.1082 101.303 15.16 103.75 15.16C105.793 15.16 107.433 17.007 107.433 19.3347ZM105.92 19.4613C105.995 19.0058 105.819 18.4745 105.642 17.9685C105.264 16.7793 104.204 15.9949 103.12 16.0455C101.783 16.1214 101.303 17.0829 101.051 18.2215C100.95 18.7022 100.9 19.2335 100.925 19.7143C101.026 21.536 102.287 22.9782 103.7 22.9276C105.011 22.877 105.92 21.4854 105.92 19.4613Z" fill="white"/>
<path d="M76.4314 37.2736C76.4314 36.3121 76.7341 35.6796 77.6674 35.4012C78.399 35.1988 79.1053 34.9205 79.8116 34.6675C80.2404 34.5157 80.8963 34.5663 80.8206 33.8073C80.7701 33.2 80.9719 32.4916 80.3665 32.0614C79.7864 31.6313 79.1557 31.9096 78.5503 32.112C78.1467 32.2386 78.1972 32.6687 78.1215 32.9723C77.9954 33.4277 77.6927 33.4277 77.3395 33.4024C77.1125 33.3771 76.7593 33.5036 76.7341 33.1747C76.6837 32.8205 76.5071 32.3145 76.9107 32.1374C77.9954 31.6313 79.0044 30.8217 80.2656 30.847C81.5773 30.8723 82.1575 31.4036 82.2332 32.7952C82.3089 34.0856 82.2332 35.4013 82.2584 36.6916C82.2836 37.3495 82.0062 38.2097 83.1665 38.235C83.3935 38.235 83.4944 38.5133 83.4188 38.7411C83.3179 39.0447 81.426 39.2471 81.3503 38.9435C80.9719 37.476 80.2909 38.3615 79.8368 38.7664C78.9287 39.6013 78.0458 39.5507 77.1377 38.8676C76.5575 38.4627 76.381 37.8555 76.4314 37.2736ZM80.6945 35.1482C79.9629 35.4519 79.2818 35.7302 78.5755 36.0085C77.7683 36.3374 77.6674 36.9699 77.9954 37.6531C78.3233 38.3362 78.9287 38.235 79.5089 38.0073C80.8458 37.5519 81.0224 36.5398 80.6945 35.1482Z" fill="white"/>
<path d="M86.925 15.1347C88.5394 15.2359 89.0439 15.7167 89.1196 17.007C89.1953 18.4745 89.1701 19.942 89.2205 21.4095C89.2457 21.9408 89.1448 22.5481 90.0025 22.5228C90.3304 22.5228 90.4566 22.7758 90.3304 23.0288C90.1791 23.4083 88.3629 23.5095 88.262 23.13C87.934 22.0674 87.4548 22.5228 86.9503 22.9529C86.2187 23.5854 85.462 24.0409 84.4782 23.4589C83.671 22.9782 83.2674 22.2951 83.3431 21.3842C83.4188 20.524 83.7971 19.8914 84.7305 19.689C85.3863 19.5372 85.9917 19.2336 86.6476 19.0818C87.5304 18.9047 87.9593 18.4745 87.8079 17.5384C87.707 16.9311 87.6313 16.2986 86.8746 16.248C86.0926 16.1974 85.2097 16.1468 85.0584 17.2854C85.0079 17.7661 84.6296 17.7408 84.3016 17.7155C84.0494 17.6902 83.6458 17.842 83.5953 17.4119C83.5701 17.1082 83.4188 16.6275 83.7467 16.4757C84.8818 15.9697 85.916 15.2106 86.925 15.1347ZM87.6818 19.4866C86.9503 19.7902 86.2692 20.0938 85.5629 20.3468C84.7557 20.6505 84.5791 21.3083 84.8566 21.9661C85.1845 22.7505 85.8656 22.5987 86.5467 22.3457C87.8584 21.789 87.9088 20.777 87.6818 19.4866Z" fill="white"/>
<path d="M109.628 34.9711C109.628 35.7301 109.628 36.4892 109.628 37.2482C109.628 37.5772 109.653 37.9314 109.956 38.1338C110.233 38.3109 110.965 37.982 110.687 38.741C110.586 39.0446 108.82 39.2471 108.745 38.994C108.24 37.4 107.534 38.4627 107.004 38.8928C106.02 39.7278 105.138 39.4242 104.305 38.7157C103.574 38.0832 103.548 36.7928 104.103 35.9326C104.356 35.553 104.709 35.5277 105.037 35.4012C105.667 35.1735 106.298 34.9711 106.954 34.794C107.711 34.5663 108.392 34.3386 108.165 33.3012C108.038 32.6687 108.013 31.9602 107.181 31.9349C106.399 31.9096 105.541 31.8843 105.415 33.0229C105.365 33.5289 104.961 33.4277 104.633 33.4277C104.356 33.4277 103.977 33.5289 103.952 33.0988C103.927 32.7952 103.775 32.3397 104.129 32.1879C105.289 31.6819 106.348 30.7963 107.736 30.8976C108.795 30.9735 109.451 31.5048 109.476 32.6434C109.502 33.4277 109.552 34.2374 109.577 35.0217C109.653 34.9711 109.628 34.9711 109.628 34.9711ZM108.114 35.1482C107.332 35.4771 106.55 35.7554 105.819 36.1097C105.087 36.4386 105.087 37.0964 105.339 37.7037C105.617 38.3109 106.197 38.2856 106.752 38.1085C108.038 37.6531 108.291 37.147 108.114 35.1482Z" fill="white"/>
<path d="M114.168 32.618C114.168 34.1614 114.193 35.7301 114.168 37.2735C114.168 37.9314 114.092 38.5639 115.051 38.5133C115.228 38.5133 115.53 38.5386 115.455 38.8422C115.404 39.0952 115.177 39.1205 114.975 39.1205C113.966 39.1205 112.957 39.1205 111.948 39.1205C111.747 39.1205 111.52 39.0952 111.52 38.8169C111.52 38.6145 111.696 38.5133 111.847 38.5133C112.831 38.5639 112.73 37.9061 112.705 37.2735C112.705 34.541 112.705 31.8084 112.705 29.1011C112.705 28.4939 112.806 27.8614 111.847 28.0132C111.62 28.0385 111.419 27.9373 111.444 27.6842C111.469 27.5577 111.62 27.4312 111.747 27.3553C111.898 27.2794 112.074 27.2794 112.226 27.2288C114.118 26.6469 114.118 26.6469 114.118 28.6204C114.168 29.9108 114.168 31.2518 114.168 32.618Z" fill="white"/>
<path d="M99.2097 35.3254C99.2097 34.6928 99.1845 34.0603 99.2097 33.4277C99.2601 32.5928 99.3106 31.7831 98.0493 32.0362C97.8475 32.0868 97.5448 32.0362 97.5953 31.7831C97.6457 31.4289 97.9232 31.1253 98.2764 31.1506C99.1088 31.2265 99.361 30.8976 99.361 30.0879C99.361 29.8096 99.7142 29.5566 99.916 29.2783C100.042 29.1265 100.193 28.9494 100.42 29C100.698 29.0759 100.622 29.3289 100.622 29.5313C100.622 29.7084 100.648 29.8602 100.622 30.0373C100.42 31.1253 100.925 31.4036 101.934 31.3024C102.338 31.2771 103.145 30.9229 103.17 31.6313C103.195 32.4157 102.363 32.0362 101.984 32.0109C100.925 31.9096 100.496 32.2133 100.597 33.3518C100.723 34.5157 100.622 35.7049 100.622 36.8687C100.622 37.9567 101.127 38.3109 102.136 38.0073C102.438 37.9314 102.792 37.5772 102.993 38.0579C103.195 38.5133 102.666 38.5387 102.413 38.7158C102.035 38.9688 101.631 39.2471 101.202 39.3736C100.118 39.7025 99.2097 38.9941 99.1845 37.8302C99.1845 36.9953 99.2097 36.1603 99.2097 35.3254Z" fill="white"/>
<path d="M79.6602 17.2853C80.2656 16.6022 80.7701 16.1215 81.199 15.5395C81.6026 15.0335 82.1323 15.1094 82.5863 15.2359C83.0404 15.3624 82.7881 15.8937 82.8386 16.248C82.889 16.9564 82.3593 16.7287 81.9809 16.8046C80.5936 17.0576 79.6602 18.1709 79.6602 19.6131C79.6602 20.1697 79.6855 20.701 79.6602 21.2577C79.635 22.1179 79.5341 23.0035 80.871 22.8011C81.1233 22.7505 81.3755 22.9023 81.3503 23.2312C81.3251 23.5095 81.0728 23.5095 80.871 23.5095C79.7864 23.5095 78.6765 23.5095 77.5918 23.5095C77.4152 23.5095 77.1377 23.5601 77.0873 23.2818C77.0116 22.9023 77.3395 22.877 77.5666 22.877C78.2981 22.877 78.2981 22.4215 78.2981 21.8902C78.2729 20.3721 78.2729 18.854 78.2981 17.3359C78.2981 16.7793 78.2981 16.2986 77.5161 16.5516C77.3143 16.6022 77.0873 16.6022 77.0368 16.3239C76.9864 16.0456 77.1377 15.9443 77.3648 15.919C77.4152 15.919 77.4404 15.8937 77.4909 15.8937C79.2566 15.0841 79.4332 15.1853 79.6602 17.2853Z" fill="white"/>
<path d="M95.9304 34.8446C95.9304 35.6037 95.9304 36.3627 95.9304 37.1217C95.9052 37.8302 95.779 38.5892 96.9142 38.5133C97.0907 38.5133 97.2421 38.6398 97.2421 38.8169C97.2169 38.9688 97.0907 39.1206 96.8889 39.1206C95.8295 39.1206 94.7953 39.1206 93.7358 39.1206C93.5592 39.1206 93.3827 39.07 93.3574 38.8676C93.3322 38.6145 93.534 38.488 93.761 38.488C94.5935 38.5133 94.5178 37.9567 94.5178 37.3748C94.4926 35.9073 94.4926 34.4145 94.5178 32.947C94.5178 32.4157 94.4926 31.9855 93.7863 32.1373C93.534 32.1879 93.2313 32.1626 93.2061 31.8337C93.1809 31.4795 93.534 31.5301 93.7358 31.4542C95.8043 30.6192 95.9304 30.7205 95.9304 32.9217C95.9304 33.5795 95.9304 34.2121 95.9304 34.8446Z" fill="white"/>
<path d="M96.1322 29.1518C96.1826 30.012 95.8799 30.3156 95.1232 30.3409C94.3664 30.3662 94.3664 29.9614 94.316 29.4048C94.2655 28.6963 94.5935 28.4686 95.2493 28.4433C95.8799 28.418 96.2331 28.5698 96.1322 29.1518Z" fill="white"/>
</g>
<defs>
<clipPath id="clip0">
<rect width="108" height="40" fill="white" transform="translate(27.9999 7)"/>
</clipPath>
</defs>
</svg>
