<svg width="163" height="60" viewBox="0 0 163 60" fill="none" xmlns="http://www.w3.org/2000/svg">
<path fill-rule="evenodd" clip-rule="evenodd" d="M30.6938 22.1863C30.557 21.9125 30.2153 21.844 29.9419 21.9809C29.7368 22.1863 29.6001 22.4601 29.7368 22.7339C29.8735 23.0077 30.2153 23.0761 30.4887 22.9392C30.7621 22.8023 30.8305 22.4601 30.6938 22.1863ZM28.3698 37.5188C28.5748 37.7926 28.9166 37.9295 29.2583 37.7241C29.5318 37.5872 29.6685 37.1765 29.5318 36.8343C29.3267 36.5605 28.9849 36.4236 28.6432 36.6289C28.3014 36.8343 28.1647 37.1765 28.3698 37.5188ZM38.0075 42.584L36.9139 42.5155C36.9139 42.4471 36.9139 42.3102 36.7771 42.2417C36.5721 41.9679 36.2303 41.831 35.8886 42.0364C35.6152 42.2417 35.4784 42.584 35.6835 42.9262C35.8886 43.2 36.2303 43.3369 36.5721 43.1316C36.7771 43.0631 36.8455 42.9262 36.9139 42.7209L38.0075 42.7893C38.0075 42.9262 38.0759 43.1316 38.1442 43.2684C38.4176 43.816 39.1011 43.9529 39.5796 43.6791C40.1264 43.4053 40.2631 42.7209 39.9897 42.2417C39.7163 41.6941 39.0328 41.5572 38.5543 41.831C38.486 41.831 38.4176 41.8995 38.3493 41.9679L35.1367 39.1615C35.2734 38.9562 35.2734 38.6824 35.1367 38.477C34.9316 38.2033 34.5899 38.0664 34.2481 38.2717C33.9063 38.477 33.7696 38.8193 33.9747 39.1615L34.1797 39.3669L33.5646 40.8727C33.2912 40.7359 33.0177 40.8043 32.7443 40.9412C32.1975 41.215 32.0608 41.8995 32.3342 42.3786C32.6076 42.9262 33.2912 43.0631 33.7696 42.7893C34.3164 42.5155 34.4532 41.831 34.1797 41.3519C34.1114 41.1465 33.9063 41.0096 33.7696 40.9412L34.3848 39.4353C34.5215 39.5038 34.7266 39.4353 34.8633 39.3669L34.9316 39.2984L38.2126 42.1048C38.0758 42.2417 38.0075 42.4471 38.0075 42.584ZM36.5037 22.4601L37.5974 20.4751C37.7341 20.5435 37.9391 20.5435 38.0075 20.4066C38.3493 20.2013 38.486 19.859 38.2809 19.5168C38.0758 19.243 37.7341 19.1061 37.3923 19.3114C37.1189 19.5168 36.9822 19.859 37.1873 20.2013C37.1873 20.2697 37.2556 20.3382 37.324 20.4066L36.2303 22.3916C36.0936 22.3232 35.8886 22.2547 35.7519 22.3232L34.5215 18.9692C34.9316 18.6954 35.0683 18.2162 34.8633 17.8056C34.5899 17.4633 34.1114 17.3264 33.7013 17.5318C33.2912 17.8056 33.1545 18.2847 33.3595 18.6954C33.5646 19.0376 33.9747 19.1745 34.3164 19.1061L35.5468 22.4601C35.1367 22.7339 35 23.213 35.205 23.6237C35.4784 23.9659 35.9569 24.1028 36.367 23.8975C36.7771 23.6237 36.9139 23.1446 36.7088 22.7339C36.7088 22.6293 36.629 22.5646 36.5609 22.5094C36.5398 22.4924 36.5199 22.4762 36.5037 22.4601ZM34.8633 36.3551H35.4784C35.1367 35.9444 34.8633 35.5338 34.7266 35.1231C34.6982 35.0474 34.6699 34.9731 34.642 34.8998C34.4675 34.4418 34.307 34.0207 34.2481 33.5487C33.0177 34.3701 32.4026 35.1915 32.5393 35.6707C32.676 36.0813 33.5646 36.2867 34.8633 36.3551ZM40.8783 36.492C39.7847 36.7658 38.7594 36.9712 37.8024 37.1081C38.6227 37.5872 39.5796 37.9295 40.7416 37.9979C40.81 37.7241 41.015 37.4503 41.2884 37.3134C41.9036 36.9027 42.7922 37.1765 43.134 37.7926C43.2023 37.7926 43.2023 37.861 43.2023 37.861C44.3643 37.7241 45.3896 37.3819 46.2782 36.8343C46.0731 36.3551 46.3465 35.7391 46.825 35.4653C47.1668 35.26 47.5769 35.26 47.9186 35.3969C48.2604 34.9177 48.6022 34.3701 48.8072 33.7541C46.825 34.6439 44.9111 35.3284 44.0909 35.6022C43.225 35.8732 42.359 36.1013 41.527 36.3204C41.3082 36.378 41.0918 36.435 40.8783 36.492ZM46.5516 25.814C46.4149 25.5403 46.3465 25.198 46.4149 24.9242C45.1845 24.4451 43.8858 24.2397 42.7238 24.1713C42.6213 24.2055 42.5017 24.2226 42.3821 24.2397C42.2625 24.2568 42.1428 24.274 42.0403 24.3082C41.972 24.7189 41.7669 25.1296 41.3568 25.3349C40.81 25.6087 40.1948 25.5403 39.7847 25.198C39.1695 25.5403 38.5543 26.0194 38.0075 26.4985C37.4607 26.9777 37.0506 27.4568 36.6404 28.0044C36.6404 28.0386 36.6575 28.0557 36.6746 28.0729C36.6917 28.09 36.7088 28.1071 36.7088 28.1413C37.0506 28.7573 36.8455 29.5787 36.2303 29.921C36.0253 30.1263 35.7519 30.1263 35.4784 30.1263C35.3417 30.537 35.205 30.9477 35.1367 31.2899C35.0683 31.4268 35.0683 31.4953 35.0683 31.6322C37.8024 29.921 40.81 28.6889 43.9542 27.8675C43.9542 27.5937 44.1592 27.3199 44.4327 27.1146C44.9111 26.7723 45.5947 26.9092 45.9364 27.3884C46.1415 27.6622 46.2098 27.936 46.1415 28.2782C46.0731 28.552 46.0048 28.7573 45.663 28.9627C45.3212 29.168 44.5694 29.168 44.2276 28.7573C40.9467 29.6472 37.8024 30.9477 35 32.7958C35.0683 33.4118 35.205 34.0279 35.4784 34.5755C35.7519 35.1915 36.162 35.7391 36.6404 36.2182C37.8024 36.0813 39.1695 35.876 40.6049 35.5338C41.5618 35.3284 42.6555 34.9862 43.7491 34.6439C44.4327 34.4386 46.8934 33.4803 49.149 32.3851C49.2173 32.3167 49.2174 32.1798 49.2174 32.1113C49.2174 31.7006 49.2174 31.4268 49.0806 31.2215C48.5338 31.5637 47.7819 31.3584 47.4402 30.8108C47.4402 30.8108 47.3718 30.7424 47.3718 30.6739C46.8934 30.6739 46.3465 30.8108 45.7997 30.9477C44.0909 31.3584 42.177 32.2482 40.9467 32.8643C40.9467 33.3434 40.7416 33.7541 40.3315 34.0279C39.7847 34.3701 39.0328 34.1648 38.691 33.6172C38.3493 33.0696 38.5543 32.3167 39.1011 31.9744C39.5796 31.7006 40.1264 31.7691 40.5365 32.1113C41.8353 31.4953 43.8175 30.6055 45.5947 30.1263C45.7342 30.0984 45.8709 30.0704 46.0048 30.043C46.5265 29.9364 47.005 29.8385 47.4402 29.7841C47.5085 29.5787 47.7136 29.3734 47.9186 29.2365C48.4655 28.8942 49.2174 29.0996 49.5591 29.6472C49.6958 29.8525 49.6958 30.1263 49.6958 30.3316V30.3317C49.9692 30.6739 50.1059 31.2215 50.1059 31.906C52.0882 30.8108 53.6603 29.6472 53.3869 28.6204C53.2502 28.3466 52.7717 28.1413 52.0198 28.0044C52.0053 28.0479 51.997 28.0853 51.9896 28.1184C51.962 28.2418 51.9474 28.3072 51.678 28.4151C50.0376 29.0996 49.3541 27.183 50.4477 26.4985C50.7895 26.2932 51.678 26.2932 52.0198 26.6354C52.0882 26.7039 52.1565 26.7723 52.1565 26.8408C53.3185 27.0461 54.0704 27.4568 54.3438 28.1413V28.2782C54.7539 30.0579 52.4983 31.7691 49.9009 33.0696C49.6275 34.1648 49.149 35.0546 48.5338 35.876C48.5408 35.9039 48.5478 35.9312 48.5546 35.9579C48.6147 36.1924 48.6635 36.3831 48.6022 36.6289L51.1312 37.3819C51.1996 37.1765 51.3363 37.0396 51.473 36.9712C51.6097 36.9027 51.8148 36.9027 52.0198 36.9027L52.7033 34.4386C52.5666 34.3701 52.4299 34.3017 52.3616 34.1648C52.1565 33.8225 52.2932 33.4118 52.635 33.2065C52.9768 33.0696 53.3869 33.1381 53.5919 33.4803C53.6603 33.6172 53.6603 33.7541 53.6603 33.891L55.3007 34.2332C55.3691 34.0279 55.5742 33.8225 55.7792 33.6856C56.2577 33.4118 56.8729 33.5487 57.1463 34.0279C57.4197 34.507 57.283 35.1231 56.8045 35.3969C56.326 35.6707 55.7109 35.5338 55.4374 35.0546C55.3007 34.8493 55.3007 34.6439 55.3007 34.4386L53.6603 34.0963C53.6603 34.2332 53.5236 34.3701 53.3869 34.4386C53.2502 34.507 53.1135 34.507 52.9768 34.507L52.2932 36.9712C52.4983 37.0396 52.635 37.1765 52.7033 37.3134C52.9084 37.6557 52.84 38.0664 52.5666 38.3401L54.002 40.1883C54.2755 40.0514 54.6172 40.1198 54.7539 40.3936C54.8906 40.6674 54.8223 41.0096 54.5489 41.1465C54.2755 41.2834 53.9337 41.215 53.797 40.9412C53.7286 40.8727 53.7286 40.8043 53.7286 40.7358L49.3541 40.1883C49.2857 40.3936 49.149 40.599 48.9439 40.7358C48.6705 40.8727 48.3971 40.8727 48.1921 40.8043L47.0984 42.7893C47.1326 42.8235 47.1497 42.8578 47.1668 42.892C47.1839 42.9262 47.2009 42.9604 47.2351 42.9947C47.3718 43.3369 47.3035 43.6791 46.9617 43.8845C46.6199 44.0898 46.2782 44.0214 46.0731 43.6791C45.9364 43.3369 46.0048 42.9947 46.3465 42.7893C46.5516 42.6524 46.6883 42.6524 46.8934 42.7209L47.7819 40.599L47.5769 40.3936L43.6808 42.6524C43.8175 42.9947 43.6808 43.3369 43.4074 43.4738C43.0656 43.6791 42.7238 43.6107 42.5188 43.2684C42.3821 42.9262 42.4504 42.584 42.7922 42.3786C43.0656 42.1733 43.4074 42.2417 43.6124 42.5155L47.5085 40.2567C47.3035 39.9145 47.5085 39.4353 47.8503 39.23C48.2604 38.9562 48.8072 39.0931 49.0123 39.5038C49.0806 39.6407 49.149 39.7776 49.149 39.9145L53.5236 40.4621C53.5577 40.4278 53.5748 40.3936 53.5919 40.3594C53.609 40.3252 53.6261 40.2909 53.6603 40.2567L52.2249 38.4086C51.8148 38.6824 51.2679 38.5455 51.0629 38.1348C50.9945 37.9979 50.9945 37.7926 50.9945 37.5872V37.5872L48.4655 36.8343C48.3288 37.1081 48.1921 37.3134 47.9186 37.4503C47.5085 37.6557 47.0301 37.6557 46.6883 37.4503C45.663 38.0664 44.501 38.477 43.134 38.6824C43.0656 39.0931 42.8605 39.3669 42.5188 39.5722C41.9036 39.9829 41.015 39.7091 40.6733 39.0931C40.6049 39.0246 40.5365 38.8877 40.5365 38.8193C39.2378 38.7508 38.0759 38.3401 37.1189 37.7926C36.8455 37.6557 36.5721 37.4503 36.2987 37.245C35.7519 37.3134 35.2051 37.3134 34.7266 37.3134H34.7266C32.9494 37.3134 31.7874 36.8343 31.4456 35.9444V35.8076C31.1722 34.7808 32.1292 33.4803 33.9747 32.2482C33.9747 31.9559 34.0245 31.6636 34.0817 31.3286C34.0914 31.2714 34.1014 31.213 34.1114 31.153C34.1797 30.9135 34.2481 30.691 34.3164 30.4686C34.3848 30.2461 34.4532 30.0236 34.5215 29.7841C34.4873 29.7498 34.4532 29.6985 34.419 29.6472C34.3848 29.5958 34.3506 29.5445 34.3164 29.5103C34.2481 29.4418 34.1797 29.3049 34.1797 29.2365L32.3342 29.7841C32.4026 30.0579 32.2659 30.3317 31.9925 30.4686C31.6507 30.6055 31.2406 30.537 31.0355 30.1948C30.9672 30.0579 30.9672 29.8525 30.9672 29.7156L28.9166 28.9627C28.8482 29.0996 28.7115 29.2365 28.5065 29.3734C28.028 29.6472 27.4128 29.5103 27.1394 29.0311C26.866 28.552 27.0027 27.936 27.4812 27.6622C27.9596 27.3884 28.5748 27.5253 28.8482 28.0044C28.9849 28.2782 29.0533 28.4835 28.9849 28.7573L31.0355 29.5103C31.1039 29.3734 31.1722 29.3049 31.3089 29.2365C31.3773 29.168 31.514 29.168 31.6507 29.168L32.1975 26.1563C31.9925 26.0878 31.8558 25.9509 31.719 25.7456C31.514 25.3349 31.6507 24.7873 32.0608 24.582C32.4709 24.3082 33.0177 24.4451 33.2228 24.8558C33.4279 25.2665 33.2912 25.814 32.881 26.0194C32.7443 26.1563 32.5393 26.1563 32.4026 26.1563L31.8557 29.168C32.0608 29.2365 32.1975 29.3734 32.2659 29.5103V29.5787L34.1797 29.0311C34.1114 28.4835 34.3164 28.0044 34.7949 27.7306C35.1367 27.5937 35.4101 27.5253 35.7519 27.5937C36.2303 26.9777 36.7088 26.4301 37.324 25.8825C37.9391 25.3349 38.5543 24.8558 39.2378 24.5135C39.1695 23.9659 39.3746 23.3499 39.9214 23.0761C40.5365 22.7339 41.3568 22.9392 41.7669 23.5552C42.0403 23.4868 42.3137 23.4183 42.5871 23.4183C44.0225 23.2814 45.4579 23.4868 46.825 24.1028C46.8934 24.1028 46.9617 24.0344 47.0301 23.9659C47.6452 23.5552 48.5338 23.829 48.8756 24.4451C49.2857 25.1296 49.0806 25.9509 48.3971 26.2932C47.7819 26.7039 46.8934 26.4301 46.5516 25.814ZM49.7642 21.0226L50.5844 23.1446C50.1743 23.4183 50.0376 23.8975 50.311 24.2397C50.5161 24.6504 50.9945 24.7873 51.6097 24.5135C51.8831 24.3082 52.0882 24.0344 52.0198 23.6921L56.326 22.597V22.6654C56.4627 22.8708 56.6678 23.0077 56.8729 23.0077L57.488 27.6622C57.4197 27.6622 57.3513 27.6622 57.283 27.7306L55.164 25.0611C55.4374 24.7873 55.5058 24.3766 55.3007 24.0344C55.0273 23.6921 54.5489 23.5552 54.1387 23.7606C53.7286 24.0344 53.5919 24.5135 53.797 24.9242C54.0704 25.2665 54.5489 25.4034 54.959 25.198L57.0779 27.8675C56.8045 28.1413 56.7362 28.552 56.9412 28.8942C57.2146 29.2365 57.6931 29.3734 58.1032 29.168C58.5133 28.8942 58.65 28.4151 58.445 28.0044C58.3083 27.7306 57.9665 27.5937 57.6931 27.5937L57.0779 22.9392C57.1121 22.9392 57.1292 22.9221 57.1463 22.905C57.1634 22.8879 57.1804 22.8708 57.2146 22.8708C57.5564 22.6654 57.6931 22.3232 57.488 21.9809C57.283 21.7071 56.9412 21.5702 56.5994 21.7756C56.326 21.9125 56.2577 22.1178 56.2577 22.3916L51.9515 23.4868L51.8831 23.4183C51.8148 23.2814 51.7464 23.213 51.6097 23.1446L52.7717 20.7488C52.9084 20.8173 53.1135 20.7488 53.2502 20.6804C53.5236 20.4751 53.6603 20.1328 53.4552 19.7906C53.2502 19.5168 52.9084 19.3799 52.5666 19.5852C52.2249 19.7906 52.0882 20.1328 52.2932 20.4751L52.4983 20.6804L51.3363 23.0761C51.2619 23.0761 51.1966 23.0671 51.137 23.0589C51.0321 23.0445 50.945 23.0325 50.8578 23.0761L49.9692 20.9542C50.2426 20.7488 50.3793 20.3382 50.1743 20.0644C49.9692 19.7906 49.6275 19.6537 49.2857 19.859C49.0806 19.9959 48.9439 20.1328 48.9439 20.3382L46.4832 20.4066C46.4832 20.2697 46.4149 20.1328 46.3465 19.9959C46.2782 19.859 46.2098 19.7906 46.1415 19.7221L47.7819 17.6002C47.987 17.7371 48.1921 17.7371 48.3971 17.6002C48.7389 17.3949 48.8756 17.0526 48.6705 16.7104C48.4655 16.4366 48.1237 16.2997 47.7819 16.505C47.4402 16.7104 47.3035 17.0526 47.5085 17.3949C47.5085 17.4291 47.5256 17.4462 47.5427 17.4633C47.5598 17.4804 47.5769 17.4975 47.5769 17.5318L46.0048 19.6537C45.663 19.4483 45.2529 19.4483 44.9111 19.6537C44.5694 19.859 44.4327 20.1328 44.3643 20.4066L41.8353 20.2013C41.8353 20.1328 41.8353 19.9959 41.7669 19.9275L41.5618 19.7221L42.5188 17.6687C42.7238 17.7371 42.9972 17.7371 43.2023 17.6002C43.6124 17.3264 43.7491 16.8473 43.5441 16.4366C43.2707 16.0259 42.7922 15.889 42.3821 16.0943C41.972 16.3681 41.8353 16.8473 42.0403 17.258C42.1087 17.3949 42.2454 17.5318 42.3821 17.4633L41.4251 19.5168C41.2884 19.4483 41.0834 19.5168 40.9467 19.5852C40.6049 19.7906 40.4682 20.1328 40.6733 20.4751C40.8783 20.7488 41.2201 20.8857 41.5618 20.6804C41.7387 20.6214 41.8139 20.4605 41.8751 20.3295C41.8848 20.3086 41.8942 20.2885 41.9036 20.2697L44.4327 20.4751C44.4327 20.612 44.501 20.8173 44.5694 20.9542C44.8428 21.5018 45.5263 21.6387 46.0048 21.3649C46.3465 21.228 46.5516 20.8857 46.5516 20.5435L49.0123 20.4751C49.0123 20.5435 49.0123 20.612 49.0806 20.6804C49.2174 20.9542 49.4908 21.0911 49.7642 21.0226ZM135 20.9542L130.831 27.2514V31.4268H128.985V27.3199L124.815 21.0226H127.003L129.942 25.6087L132.881 20.9542H135ZM119.552 26.0878L123.312 31.4268H121.056L118.322 27.4568L115.588 31.4268H113.469L117.297 26.1562L113.674 21.0226H115.861L118.459 24.7873L121.056 21.0226H123.175L119.552 26.0878ZM104.72 27.2514H108.342L106.497 23.0761L104.72 27.2514ZM105.745 20.9542H107.454L111.965 31.4268H110.051L109.026 28.8942H104.105L103.011 31.4268H101.165L105.745 20.9542ZM99.3883 31.4268H92.0745V21.0226H93.92V29.784H99.3883V31.4268ZM82.3001 27.2514H85.9228L84.0772 23.0761L82.3001 27.2514ZM83.257 20.9542H84.9658L89.4771 31.4268H87.5632L86.5379 28.8942H81.6165L80.5229 31.4268H78.6774L83.257 20.9542ZM134.453 40.462H131.241V35.876H132.061V39.7091H134.453V40.462ZM120.578 38.6823H122.15L121.329 36.8342L120.578 38.6823ZM120.988 35.876H121.74L123.722 40.462H122.902L122.423 39.3668H120.236L119.757 40.462H118.937L120.988 35.876ZM112.375 36.6289H110.94V40.462H110.12V36.6289H108.684V35.876H112.375V36.6289ZM101.097 40.462H100.277V35.876H101.097V40.462ZM92.4846 37.9294V39.846C92.4163 39.9144 92.2796 40.0513 92.0745 40.1198C92.0061 40.154 91.9207 40.1882 91.8353 40.2225C91.7498 40.2567 91.6644 40.2909 91.596 40.3251C91.4935 40.3593 91.4081 40.3765 91.3226 40.3936C91.2372 40.4107 91.1517 40.4278 91.0492 40.462C90.9125 40.5305 90.7075 40.5305 90.5024 40.5305C90.1606 40.5305 89.8189 40.462 89.5455 40.3251C89.272 40.2567 88.9986 40.0513 88.7936 39.846C88.5885 39.6406 88.4518 39.3668 88.3151 39.093C88.3051 39.0431 88.2952 38.9947 88.2854 38.9472C88.2283 38.6695 88.1784 38.4271 88.1784 38.1348C88.1784 37.861 88.2468 37.5187 88.3835 37.2449C88.5202 36.9711 88.6569 36.6973 88.8619 36.492C89.067 36.2866 89.3404 36.1497 89.6138 36.0129C89.8872 35.876 90.229 35.8075 90.5708 35.8075C90.6836 35.8075 90.7965 35.8282 90.898 35.8469C90.9809 35.8621 91.0561 35.876 91.1176 35.876C91.1919 35.876 91.2573 35.885 91.3169 35.8932C91.4218 35.9076 91.5089 35.9196 91.596 35.876L92.0062 36.0813C92.0745 36.1497 92.2112 36.2866 92.3479 36.3551L91.8695 36.9711C91.8353 36.9369 91.784 36.9027 91.7327 36.8685C91.6815 36.8342 91.6302 36.8 91.596 36.7658C91.5619 36.7316 91.5106 36.7144 91.4593 36.6973C91.4081 36.6802 91.3568 36.6631 91.3226 36.6289C91.2543 36.6289 91.203 36.6118 91.1517 36.5947C91.1005 36.5776 91.0492 36.5604 90.9809 36.5604C90.8442 36.492 90.7075 36.492 90.5708 36.492C90.3657 36.492 90.1606 36.5604 89.9556 36.6289C89.7505 36.6973 89.6138 36.8342 89.4771 36.9711C89.4363 37.0324 89.3955 37.0876 89.3565 37.1403C89.2649 37.2643 89.1833 37.3747 89.1353 37.5187L89.1353 37.5187C89.067 37.7241 88.9986 37.9294 88.9986 38.1348C88.9986 38.4086 89.067 38.6139 89.1353 38.8192C89.2037 39.0246 89.3404 39.2299 89.4771 39.3668C89.6138 39.5037 89.7505 39.6406 89.9556 39.7091C90.0923 39.7775 90.3657 39.846 90.5708 39.846C90.7758 39.846 90.9809 39.846 91.1859 39.7775C91.391 39.7091 91.5277 39.6406 91.6644 39.5037V38.6139H90.5024V37.9294H92.4846ZM80.5229 40.462H79.7027V35.876H80.5229V40.462ZM71.0219 38.8192C71.0902 38.6139 71.1586 38.4086 71.1586 38.2032C71.1586 37.9294 71.0902 37.7241 71.0219 37.5872C70.9535 37.3818 70.8168 37.2449 70.6801 37.108C70.5434 36.9711 70.4067 36.8342 70.2016 36.7658C69.9966 36.6973 69.7915 36.6289 69.5181 36.6289H68.6295V39.7775H69.5181C69.7915 39.7775 69.9966 39.7091 70.2016 39.6406C70.4067 39.5722 70.5434 39.4353 70.6801 39.2984C70.8168 39.1615 70.9535 39.0246 71.0219 38.8192ZM71.7737 37.3134C71.9104 37.5872 71.9788 37.861 71.9788 38.2032C71.9788 38.477 71.9104 38.8192 71.7737 39.0246C71.7054 39.2984 71.5003 39.5722 71.2953 39.7775C71.0902 39.9829 70.8168 40.1882 70.475 40.2567C70.2016 40.3936 69.8599 40.462 69.5181 40.462H67.8093V35.876H69.5181C69.8599 35.876 70.2016 35.9444 70.5434 36.0813C70.8168 36.2182 71.0902 36.3551 71.2953 36.5604C71.5003 36.7658 71.7054 36.9711 71.7737 37.3134ZM76.4901 25.6087V29.9894C76.2167 30.1947 75.9433 30.4001 75.6015 30.6054L75.6015 30.6054C75.2597 30.8108 74.918 31.0161 74.5762 31.153C74.2344 31.2899 73.8243 31.4268 73.4142 31.4952C73.0041 31.5637 72.594 31.6321 72.1155 31.6321C71.3636 31.6321 70.6117 31.4952 69.9282 31.2214C69.2447 30.9477 68.6979 30.537 68.2194 30.0578C67.7409 29.5787 67.3992 29.0311 67.1258 28.3466C66.8523 27.7306 66.7156 26.9776 66.7156 26.2247C66.7156 25.5402 66.8523 24.8557 67.1258 24.1712C67.3992 23.4867 67.7409 22.8707 68.2194 22.3916C68.6979 21.9124 69.2447 21.5017 69.9282 21.2279C70.6117 20.9542 71.2953 20.8173 72.1155 20.8173C72.5256 20.8173 73.0041 20.8173 73.4826 20.9542C73.8243 21.0226 74.1661 21.091 74.5079 21.2279C74.7813 21.2964 75.123 21.4333 75.3964 21.6386L76.2167 22.2547L75.0547 23.6236C74.8496 23.4183 74.6446 23.2814 74.4395 23.1445C74.2344 23.0076 73.961 22.8707 73.756 22.8023C73.5509 22.7338 73.2775 22.6654 73.0041 22.5969C72.7307 22.5285 72.4573 22.5285 72.1155 22.5285C71.637 22.5285 71.1586 22.5969 70.7485 22.8023C70.3383 23.0076 69.9282 23.2814 69.6548 23.6236C69.3814 23.9659 69.1763 24.3081 68.9713 24.7873C68.7662 25.2664 68.6979 25.7456 68.6979 26.2247C68.6979 26.7723 68.8346 27.2514 68.9713 27.7306L68.9713 27.7306C69.1763 28.1413 69.3814 28.552 69.7232 28.8942C69.9966 29.168 70.4067 29.4418 70.8168 29.6471C71.2269 29.8525 71.7054 29.9209 72.2522 29.9209C72.7307 29.9209 73.2091 29.8525 73.6193 29.7156C74.0294 29.5787 74.3711 29.3733 74.7129 29.168V27.183H72.0472V25.6087H76.4901Z" fill="white"/>
</svg>
