<svg width="163" height="60" viewBox="0 0 163 60" fill="none" xmlns="http://www.w3.org/2000/svg">
<path d="M42.0865 23.0056C42.0884 14.8865 48.6243 8.35536 56.7739 8.39323C64.8614 8.43078 71.3258 14.968 71.3028 23.0042C71.2793 31.1541 64.7464 37.6905 56.5204 37.6102C48.4205 37.5312 42.057 30.8956 42.0865 23.0056ZM46.9423 22.9461C46.9881 25.6621 47.9135 27.9914 49.8226 29.8882C51.7367 31.79 54.0664 32.7308 56.7729 32.7299C62.0711 32.7282 66.4281 28.3446 66.4321 23.0056C66.4361 17.6344 62.0619 13.2446 56.6892 13.2608C54.0084 13.2689 51.6956 14.2301 49.8003 16.1317C47.9203 18.018 47.0029 20.3187 46.9423 22.9461Z" fill="white"/>
<path d="M56.6904 49.649C56.6996 49.1244 56.9168 48.5505 57.3795 48.0871C60.644 44.8178 63.909 41.5489 67.1815 38.2875C68.1288 37.3433 69.6523 37.3769 70.6067 38.3358C71.5586 39.2924 71.5502 40.814 70.5735 41.7935C68.203 44.1708 65.8268 46.5423 63.4528 48.9161C62.602 49.7668 61.7541 50.6206 60.8995 51.4676C59.8119 52.5456 58.1355 52.4656 57.2118 51.2937C56.8628 50.8509 56.6891 50.3437 56.6904 49.649Z" fill="white"/>
<path d="M86.3804 31.7625C85.3655 32.9138 83.5673 32.8917 82.402 32.0088C80.4185 30.506 80.5352 27.3028 82.6478 25.9925C83.6663 25.3607 84.7362 25.304 85.804 25.9082C85.9129 25.9698 86.0085 26.0556 86.1075 26.1336C86.2001 26.2066 86.2892 26.2842 86.3817 26.3615C86.3817 26.2052 86.3908 26.029 86.3789 25.8542C86.3687 25.7047 86.4059 25.65 86.5703 25.6538C87.0886 25.6657 87.6075 25.6647 88.1258 25.6544C88.2888 25.6512 88.3358 25.6929 88.3353 25.8611C88.3289 27.7224 88.3326 29.5837 88.3305 31.445C88.3298 32.0291 88.3597 32.6147 88.2506 33.1945C87.9809 34.6273 86.9536 35.5918 85.47 35.789C84.4559 35.9238 83.4761 35.8288 82.5891 35.2702C81.8712 34.8181 81.4332 34.1709 81.3012 33.3231C81.2805 33.1905 81.3152 33.165 81.4386 33.1662C81.977 33.1715 82.5155 33.1692 83.054 33.1675C83.1313 33.1673 83.191 33.1718 83.2255 33.261C83.4993 33.9682 84.0585 34.2162 84.7717 34.2149C85.6986 34.2132 86.3301 33.6214 86.378 32.6937C86.3934 32.3964 86.3804 32.0976 86.3804 31.7625ZM84.7499 30.8951C85.7771 30.8894 86.5416 30.1007 86.5353 29.0532C86.5292 28.0364 85.7549 27.279 84.726 27.2834C83.7005 27.2878 82.9389 28.0696 82.9494 29.1073C82.9597 30.1254 83.7404 30.9007 84.7499 30.8951Z" fill="white"/>
<path d="M107.056 31.9713C107.056 32.0888 107.056 32.1526 107.056 32.2164C107.056 33.3134 107.052 34.4105 107.059 35.5075C107.06 35.6639 107.021 35.7101 106.862 35.7069C106.337 35.6967 105.811 35.6992 105.286 35.7058C105.154 35.7075 105.102 35.6814 105.103 35.5334C105.107 32.2955 105.107 29.0575 105.103 25.8195C105.103 25.6849 105.145 25.6538 105.273 25.6554C105.812 25.6623 106.351 25.6621 106.889 25.6556C107.017 25.6541 107.067 25.6852 107.058 25.8202C107.047 26.005 107.056 26.1911 107.056 26.3775C107.075 26.3775 107.093 26.3827 107.098 26.3768C107.899 25.4533 109.325 25.2393 110.465 25.8204C111.58 26.3888 112.191 27.339 112.38 28.5493C112.586 29.8692 112.248 31.0477 111.286 32.0014C110.262 33.0152 108.681 33.1894 107.569 32.4386C107.392 32.3189 107.235 32.1766 107.056 31.9713ZM110.46 29.1904C110.456 29.0412 110.446 28.8562 110.404 28.6738C110.211 27.8555 109.571 27.3084 108.774 27.2836C107.905 27.2567 107.243 27.7264 106.993 28.5542C106.888 28.9032 106.878 29.259 106.937 29.619C107.119 30.7239 108.181 31.3763 109.247 31.0342C109.984 30.7978 110.444 30.1116 110.46 29.1904Z" fill="white"/>
<path d="M89.7123 16.6919C90.4421 15.8439 91.3387 15.6441 92.33 15.8284C93.4641 16.0393 94.0913 16.7912 94.3633 17.8762C94.4445 18.2002 94.4741 18.5315 94.4746 18.8644C94.4769 20.1808 94.4731 21.4972 94.4788 22.8136C94.4794 22.9662 94.4463 23.0191 94.2827 23.0156C93.7577 23.0044 93.2321 23.0052 92.7071 23.0153C92.5518 23.0183 92.5224 22.9678 92.523 22.8234C92.5288 21.6201 92.5257 20.4167 92.5268 19.2133C92.527 18.993 92.5078 18.7754 92.4561 18.5611C92.3473 18.1093 92.1313 17.7342 91.6549 17.604C91.1483 17.4655 90.6768 17.562 90.2824 17.925C89.9249 18.2539 89.7836 18.6882 89.7395 19.1547C89.6794 19.7911 89.7195 20.4302 89.7134 21.0681C89.7079 21.6465 89.7063 22.225 89.7161 22.8033C89.7188 22.964 89.6832 23.0198 89.5121 23.0157C89.0204 23.0038 88.5282 23.0115 88.0361 23.0115C87.7679 23.0115 87.7678 23.0114 87.7678 22.7523C87.7678 19.468 87.7674 16.1836 87.7691 12.8993C87.7692 12.7343 87.699 12.5229 87.7985 12.4166C87.8988 12.3095 88.1121 12.386 88.2754 12.3838C88.6943 12.3783 89.1134 12.3903 89.5319 12.3777C89.6894 12.373 89.7158 12.4267 89.7152 12.5687C89.7101 13.8451 89.7122 15.1216 89.7122 16.3981C89.7123 16.477 89.7123 16.5559 89.7123 16.6919Z" fill="white"/>
<path d="M116.073 26.4383C116.498 25.895 117.026 25.6221 117.655 25.5353C119.295 25.3089 120.551 26.2591 120.78 27.8971C120.813 28.1346 120.83 28.3727 120.83 28.6124C120.829 29.9154 120.827 31.2185 120.833 32.5216C120.834 32.6876 120.807 32.7516 120.62 32.7462C120.102 32.7315 119.583 32.7354 119.064 32.7447C118.913 32.7474 118.876 32.7025 118.877 32.5543C118.883 31.351 118.881 30.1476 118.88 28.9442C118.88 28.7379 118.873 28.532 118.826 28.3299C118.718 27.8653 118.507 27.4713 118.013 27.3363C117.498 27.1957 117.02 27.295 116.627 27.6715C116.22 28.0605 116.09 28.5708 116.083 29.1062C116.066 30.2495 116.071 31.3932 116.077 32.5366C116.078 32.7008 116.04 32.7494 115.871 32.7455C115.359 32.7335 114.847 32.7333 114.335 32.7455C114.161 32.7496 114.117 32.7047 114.117 32.5273C114.123 29.2231 114.121 25.9188 114.122 22.6146C114.122 22.4562 114.072 22.2473 114.152 22.1526C114.247 22.0402 114.464 22.1185 114.627 22.1161C115.046 22.1099 115.465 22.1227 115.883 22.1098C116.048 22.1047 116.077 22.1617 116.076 22.3114C116.07 23.6078 116.073 24.9042 116.073 26.2007C116.073 26.264 116.073 26.3274 116.073 26.4383Z" fill="white"/>
<path d="M101.003 31.9829C99.9842 33.0869 98.3186 33.2068 97.1087 32.2693C95.9668 31.3845 95.5348 30.1751 95.6678 28.7654C95.7725 27.6547 96.2653 26.7341 97.1827 26.0722C98.154 25.3716 99.4543 25.3109 100.415 25.9031C100.624 26.0318 100.803 26.1947 101.003 26.4164C101.003 26.1786 101.008 25.9896 101 25.8012C100.996 25.6865 101.037 25.6548 101.149 25.6558C101.694 25.6609 102.239 25.6636 102.784 25.6545C102.933 25.652 102.954 25.7081 102.954 25.8383C102.95 27.4269 102.951 29.0156 102.951 30.6041C102.951 31.2555 102.946 31.907 102.955 32.5583C102.958 32.712 102.911 32.7466 102.766 32.7444C102.234 32.7361 101.702 32.738 101.17 32.7435C101.045 32.7448 100.99 32.7178 100.999 32.5786C101.012 32.3964 101.003 32.2127 101.003 31.9829ZM101.158 29.1442C101.156 29.1096 101.154 29.0165 101.145 28.9241C101.057 28.0465 100.421 27.3718 99.6074 27.2926C98.6901 27.2034 97.9643 27.6757 97.6967 28.5393C97.6193 28.7888 97.5926 29.0458 97.6019 29.3068C97.6449 30.5068 98.5997 31.3023 99.7393 31.0872C100.592 30.9262 101.157 30.176 101.158 29.1442Z" fill="white"/>
<path d="M100.734 19.9208C99.8837 19.9208 99.0328 19.926 98.1821 19.9168C97.9971 19.9148 97.9765 19.9736 98.0147 20.1342C98.196 20.8959 98.8027 21.3985 99.6354 21.4646C100.054 21.4978 100.458 21.4504 100.834 21.2495C101.007 21.1577 101.177 21.0498 101.268 20.8785C101.361 20.7062 101.486 20.6849 101.658 20.688C102.183 20.6974 102.708 20.6964 103.233 20.6885C103.393 20.6861 103.424 20.7202 103.365 20.8754C103.087 21.6127 102.613 22.1902 101.938 22.5862C100.811 23.2471 99.6119 23.3548 98.3882 22.9197C96.9464 22.4071 96.0836 21.0836 96.0772 19.4604C96.0698 17.5994 97.2906 16.1403 99.1204 15.823C100.732 15.5436 102.258 16.227 103.002 17.5675C103.386 18.2597 103.516 19.0115 103.509 19.7953C103.508 19.9321 103.437 19.9216 103.347 19.9216C102.476 19.9204 101.605 19.9208 100.734 19.9208ZM99.7022 18.6399C100.207 18.6399 100.712 18.638 101.216 18.6414C101.326 18.6421 101.372 18.6298 101.331 18.4985C101.119 17.8084 100.517 17.3602 99.7771 17.3529C98.9637 17.3448 98.3307 17.7744 98.1012 18.4781C98.0543 18.6219 98.0938 18.6441 98.2281 18.6423C98.7194 18.6361 99.2109 18.6399 99.7022 18.6399Z" fill="white"/>
<path d="M86.1059 21.222C86.1059 21.7781 86.1046 22.3156 86.1074 22.8531C86.1078 22.9326 86.0639 22.9573 86.0016 22.9707C85.0972 23.1653 84.2009 23.1932 83.3598 22.7405C82.5193 22.2882 82.1807 21.5268 82.1656 20.6088C82.1502 19.6781 82.1588 18.7469 82.1657 17.8159C82.1668 17.6683 82.1315 17.623 81.9799 17.6279C81.6211 17.6398 81.2616 17.627 80.9027 17.6343C80.7789 17.6368 80.726 17.613 80.7286 17.4733C80.7371 17.0079 80.7358 16.5423 80.7292 16.0769C80.7274 15.9512 80.7706 15.9204 80.8898 15.9227C81.2554 15.9296 81.6214 15.9188 81.987 15.9284C82.1256 15.932 82.1677 15.8947 82.1655 15.7527C82.1572 15.2142 82.1664 14.6755 82.1592 14.1369C82.1574 14.0017 82.1891 13.9534 82.3334 13.9556C82.8719 13.964 83.4107 13.9638 83.9493 13.9556C84.0872 13.9536 84.1119 14.0033 84.1105 14.1268C84.1048 14.672 84.1122 15.2174 84.1051 15.7626C84.1034 15.8935 84.1412 15.9298 84.2714 15.9281C84.8166 15.921 85.3621 15.9299 85.9073 15.922C86.0556 15.9198 86.1155 15.947 86.1105 16.1146C86.0974 16.5597 86.0986 17.0057 86.1101 17.451C86.1141 17.6072 86.0618 17.637 85.9182 17.6349C85.3664 17.6269 84.8143 17.635 84.2624 17.629C84.1421 17.6277 84.1041 17.6572 84.1052 17.7829C84.1123 18.6008 84.1105 19.4187 84.1125 20.2366C84.1129 20.3971 84.1354 20.555 84.1853 20.7076C84.3172 21.1112 84.6227 21.3137 85.1446 21.3447C85.4655 21.3638 85.7803 21.3259 86.1059 21.222Z" fill="white"/>
<path d="M73.7295 13.258C72.3781 13.2566 71.3014 12.1748 71.3027 10.8197C71.3041 9.47331 72.3942 8.38392 73.7398 8.38428C75.0856 8.38464 76.1744 9.47223 76.1778 10.8197C76.1814 12.1784 75.0959 13.2593 73.7295 13.258Z" fill="white"/>
<path d="M92.4207 26.6544C92.7431 26.0918 93.201 25.7317 93.8335 25.6053C94.1239 25.5472 94.4147 25.5672 94.7042 25.6234C94.799 25.6418 94.8318 25.6894 94.831 25.7874C94.8268 26.3522 94.8267 26.9171 94.8307 27.4819C94.8315 27.5983 94.8092 27.6365 94.685 27.5929C94.4387 27.5064 94.1808 27.4734 93.9204 27.4797C93.2726 27.4952 92.7956 27.845 92.5659 28.4677C92.4637 28.7449 92.4206 29.0324 92.4207 29.3272C92.4209 30.3971 92.4171 31.4669 92.4245 32.5367C92.4257 32.7018 92.3813 32.7487 92.2157 32.7453C91.6909 32.7346 91.1657 32.7374 90.6408 32.7442C90.5119 32.7459 90.471 32.713 90.4712 32.5787C90.4752 30.3261 90.475 28.0734 90.4715 25.8208C90.4713 25.6907 90.5077 25.6533 90.6395 25.6552C91.1776 25.663 91.7161 25.662 92.2542 25.6558C92.3807 25.6543 92.4287 25.6845 92.4238 25.8196C92.4136 26.0975 92.4207 26.3761 92.4207 26.6544Z" fill="white"/>
</svg>
