<svg width="163" height="60" viewBox="0 0 163 60" fill="none" xmlns="http://www.w3.org/2000/svg">
<path d="M126.728 29.6094C126.111 29.2026 125.431 28.9133 124.788 28.5517C124.371 28.3167 123.927 28.1087 123.564 27.8104C122.948 27.3041 123.075 26.3097 123.719 25.8758C124.643 25.2611 126.174 25.6045 126.338 26.8612C126.338 26.8882 126.365 26.9064 126.392 26.9064H127.788C127.824 26.9064 127.852 26.8792 127.843 26.8431C127.77 25.9752 127.434 25.252 126.818 24.7909C126.229 24.348 125.558 24.1129 124.842 24.1129C121.153 24.1129 120.818 28.0093 122.803 29.2388C123.029 29.3834 124.978 30.3597 125.667 30.7846C126.356 31.2095 126.574 31.987 126.274 32.6017C126.002 33.1622 125.295 33.551 124.589 33.5058C123.818 33.4605 123.22 33.0447 123.011 32.3938C122.975 32.2763 122.957 32.0503 122.957 31.9508C122.957 31.9237 122.93 31.8966 122.902 31.8966H121.389C121.362 31.8966 121.335 31.9237 121.335 31.9508C121.335 33.0447 121.607 33.6504 122.35 34.2019C123.047 34.7262 123.809 34.9432 124.598 34.9432C126.664 34.9432 127.734 33.7769 127.951 32.5656C128.141 31.3813 127.788 30.3145 126.728 29.6094Z" fill="white"/>
<path d="M59.6026 24.3119C59.5754 24.3119 59.5572 24.3299 59.5482 24.348L58.3065 28.4342C58.2884 28.4885 58.2159 28.4885 58.1977 28.4342L56.956 24.348C56.947 24.3209 56.9288 24.3119 56.9016 24.3119H54.5904C54.5632 24.3119 54.536 24.339 54.536 24.3661V34.7986C54.536 34.8257 54.5632 34.8528 54.5904 34.8528H56.104C56.1312 34.8528 56.1584 34.8257 56.1584 34.7986V26.8702C56.1584 26.807 56.2491 26.798 56.2672 26.8522L57.5179 30.9655L57.6086 31.2548C57.6176 31.2819 57.6358 31.291 57.663 31.291H58.8231C58.8503 31.291 58.8684 31.2728 58.8775 31.2548L58.9681 30.9655L60.2189 26.8522C60.237 26.7889 60.3277 26.807 60.3277 26.8702V34.7986C60.3277 34.8257 60.3549 34.8528 60.382 34.8528H61.8957C61.9228 34.8528 61.95 34.8257 61.95 34.7986V24.3661C61.95 24.339 61.9228 24.3119 61.8957 24.3119H59.6026Z" fill="white"/>
<path d="M103.552 24.3119C103.524 24.3119 103.506 24.3299 103.497 24.348L102.256 28.4342C102.238 28.4885 102.165 28.4885 102.147 28.4342L100.905 24.348C100.896 24.3209 100.878 24.3119 100.851 24.3119H98.5486C98.5214 24.3119 98.4942 24.339 98.4942 24.3661V34.7986C98.4942 34.8257 98.5214 34.8528 98.5486 34.8528H100.063C100.09 34.8528 100.117 34.8257 100.117 34.7986V26.8702C100.117 26.807 100.208 26.798 100.226 26.8522L101.476 30.9655L101.567 31.2548C101.576 31.2819 101.594 31.291 101.621 31.291H102.781C102.809 31.291 102.827 31.2728 102.836 31.2548L102.927 30.9655L104.177 26.8522C104.196 26.7889 104.286 26.807 104.286 26.8702V34.7986C104.286 34.8257 104.314 34.8528 104.341 34.8528H105.854C105.881 34.8528 105.908 34.8257 105.908 34.7986V24.3661C105.908 24.339 105.881 24.3119 105.854 24.3119H103.552Z" fill="white"/>
<path d="M84.0289 24.3119H76.8777C76.8505 24.3119 76.8233 24.339 76.8233 24.3661V25.6679C76.8233 25.695 76.8505 25.7221 76.8777 25.7221H79.6421V34.7986C79.6421 34.8257 79.6692 34.8528 79.6964 34.8528H81.21C81.2373 34.8528 81.2645 34.8257 81.2645 34.7986V25.7221H84.0289C84.0561 25.7221 84.0832 25.695 84.0832 25.6679V24.3661C84.0832 24.339 84.0651 24.3119 84.0289 24.3119Z" fill="white"/>
<path d="M92.9568 34.8527H94.334C94.3703 34.8527 94.3975 34.8165 94.3884 34.7804L91.5426 24.3117C91.5335 24.2846 91.5154 24.2756 91.4882 24.2756H89.5124C89.4852 24.2756 89.4671 24.2937 89.458 24.3117L86.6121 34.7804C86.603 34.8165 86.6302 34.8527 86.6665 34.8527H88.0441C88.0713 34.8527 88.0895 34.8346 88.0985 34.8165L88.9233 31.7699C88.9323 31.7429 88.9505 31.7338 88.9777 31.7338H92.0233C92.0505 31.7338 92.0686 31.7519 92.0777 31.7699L92.9024 34.8165C92.9114 34.8346 92.9387 34.8527 92.9568 34.8527ZM89.3402 30.2422L90.446 26.165C90.4641 26.1108 90.5366 26.1108 90.5548 26.165L91.6605 30.2422C91.6696 30.2783 91.6424 30.3145 91.6061 30.3145H89.3946C89.3583 30.3145 89.3312 30.2783 89.3402 30.2422Z" fill="white"/>
<path d="M116.45 34.8527H117.827C117.863 34.8527 117.89 34.8165 117.881 34.7804L115.035 24.3117C115.026 24.2846 115.008 24.2756 114.981 24.2756H113.005C112.978 24.2756 112.96 24.2937 112.951 24.3117L110.105 34.7804C110.096 34.8165 110.123 34.8527 110.159 34.8527H111.537C111.564 34.8527 111.583 34.8346 111.592 34.8165L112.416 31.7699C112.425 31.7429 112.444 31.7338 112.471 31.7338H115.516C115.543 31.7338 115.561 31.7519 115.571 31.7699L116.395 34.8165C116.404 34.8346 116.422 34.8527 116.45 34.8527ZM112.833 30.2422L113.939 26.165C113.957 26.1108 114.029 26.1108 114.047 26.165L115.153 30.2422C115.162 30.2783 115.135 30.3145 115.099 30.3145H112.887C112.851 30.3145 112.824 30.2783 112.833 30.2422Z" fill="white"/>
<path d="M68.0952 33.3069V30.0705C68.0952 30.0434 68.1224 30.0163 68.1496 30.0163H72.1828C72.21 30.0163 72.2373 29.9891 72.2373 29.962V28.6602C72.2373 28.6331 72.21 28.606 72.1828 28.606H68.1496C68.1224 28.606 68.0952 28.5788 68.0952 28.5517V25.7854C68.0952 25.7583 68.1224 25.7311 68.1496 25.7311H72.7357C72.763 25.7311 72.7902 25.704 72.7902 25.6769V24.3751C72.7902 24.348 72.763 24.3209 72.7357 24.3209H66.5272C66.5 24.3209 66.4728 24.348 66.4728 24.3751V34.7985C66.4728 34.8257 66.5 34.8528 66.5272 34.8528H72.9261C72.9533 34.8528 72.9805 34.8257 72.9805 34.7985V33.4245C72.9805 33.3973 72.9533 33.3702 72.9261 33.3702H68.1405C68.1133 33.3612 68.0952 33.3431 68.0952 33.3069Z" fill="white"/>
<path d="M140.558 34.7624L135.32 29.3653C135.301 29.3473 135.301 29.3111 135.32 29.2931L140.033 24.4113C140.069 24.3751 140.042 24.3209 139.997 24.3209H138.066C138.048 24.3209 138.039 24.3299 138.03 24.339L134.033 28.4794C133.997 28.5156 133.942 28.4884 133.942 28.4432V24.3751C133.942 24.348 133.915 24.3209 133.888 24.3209H132.374C132.347 24.3209 132.32 24.348 132.32 24.3751V34.8076C132.32 34.8348 132.347 34.8619 132.374 34.8619H133.888C133.915 34.8619 133.942 34.8348 133.942 34.8076V30.2152C133.942 30.17 134.006 30.1428 134.033 30.179L138.564 34.8438C138.574 34.8528 138.592 34.8619 138.601 34.8619H140.531C140.567 34.8528 140.595 34.7895 140.558 34.7624Z" fill="white"/>
<path fill-rule="evenodd" clip-rule="evenodd" d="M22.6774 25.9209L21.8979 22.1783L23.0581 18.6978L30.5174 21.4822L36.7351 21.4822L44.1944 18.6978L35.4338 25.18L35.435 25.1811L44.1944 18.6978L45.3545 22.1783L44.5841 25.9209L45.0645 26.2916L44.3303 26.8521L44.8923 27.2861L44.1582 27.955L44.6204 28.2895L43.5599 29.528L45.1731 34.5002L43.6776 39.5808L38.457 38.1433L37.4511 38.9751L35.3846 40.3945H31.8589L29.8014 38.9751L28.7862 38.1433L23.5746 39.5808L22.0882 34.5002L23.6925 29.528L22.6321 28.2895L23.0943 27.955L22.3602 27.2861L22.9221 26.8521L22.1789 26.2916L22.6774 25.9209ZM34.9042 36.3262H32.3484L31.9131 36.6337L31.6683 38.6587L31.8951 38.4598H35.3572L35.5929 38.6587L35.3393 36.6336L34.9042 36.3262ZM31.7409 33.1984L30.9796 31.5982L29.1486 32.439L31.7409 33.1984ZM38.1126 32.4389L36.2727 31.5982L35.5113 33.1984L38.1126 32.4389Z" fill="white"/>
</svg>
