<svg width="162" height="60" viewBox="0 0 162 60" fill="none" xmlns="http://www.w3.org/2000/svg">
<path d="M81.5757 20.4819V39.5173C81.5748 39.5891 81.5458 39.6577 81.495 39.7085C81.4443 39.7593 81.3756 39.7883 81.3038 39.7892H79.3241C78.8697 39.7896 78.4225 39.6759 78.0234 39.4586C77.6244 39.2414 77.2862 38.9274 77.0399 38.5456L68.0552 24.6588L68.3633 31.5949V39.5173C68.3624 39.5891 68.3335 39.6577 68.2827 39.7085C68.2319 39.7593 68.1632 39.7883 68.0914 39.7892H65.4736C65.4018 39.7883 65.3331 39.7593 65.2823 39.7085C65.2316 39.6577 65.2026 39.5891 65.2017 39.5173V20.4819C65.2026 20.4101 65.2316 20.3414 65.2823 20.2906C65.3331 20.2399 65.4018 20.2109 65.4736 20.21H67.4424C67.8963 20.2102 68.3429 20.3237 68.7418 20.5403C69.1407 20.7568 69.4792 21.0695 69.7266 21.45L78.7114 35.315L78.4322 28.4042V20.4819C78.4322 20.4098 78.4608 20.3406 78.5118 20.2896C78.5628 20.2386 78.632 20.21 78.7041 20.21H81.3219C81.3905 20.2154 81.4547 20.2463 81.5016 20.2966C81.5486 20.347 81.575 20.4131 81.5757 20.4819Z" fill="white"/>
<path d="M108.33 39.7895H105.56C105.517 39.7891 105.475 39.7783 105.436 39.7582C105.398 39.738 105.365 39.709 105.34 39.6735C105.315 39.638 105.299 39.5972 105.294 39.5543C105.288 39.5114 105.292 39.4677 105.307 39.4269L112.645 20.4713C112.677 20.3919 112.732 20.3242 112.803 20.2775C112.875 20.2307 112.959 20.2072 113.044 20.2102H116.514C116.596 20.2109 116.676 20.2361 116.744 20.2826C116.812 20.3291 116.864 20.3948 116.895 20.4713L124.211 39.4269C124.226 39.4677 124.23 39.5114 124.225 39.5543C124.219 39.5972 124.203 39.638 124.178 39.6735C124.153 39.709 124.12 39.738 124.082 39.7582C124.043 39.7783 124.001 39.7891 123.958 39.7895H121.188C121.132 39.7897 121.078 39.7733 121.032 39.7422C120.986 39.7112 120.951 39.667 120.93 39.6154L115.016 24.0245C114.997 23.972 114.963 23.9267 114.917 23.8946C114.871 23.8626 114.817 23.8454 114.761 23.8454C114.705 23.8454 114.65 23.8626 114.605 23.8946C114.559 23.9267 114.524 23.972 114.505 24.0245L108.592 39.6154C108.571 39.6676 108.535 39.7121 108.488 39.7432C108.442 39.7743 108.387 39.7905 108.33 39.7895Z" fill="white"/>
<path d="M143.443 39.3505L137.939 32.3201C141.046 31.7327 142.862 29.637 142.862 26.4209C142.862 22.7263 140.458 20.21 136.205 20.21H128.53C128.422 20.21 128.319 20.2527 128.242 20.3289C128.166 20.4051 128.124 20.5083 128.124 20.616C128.124 20.9589 128.191 21.2983 128.322 21.6151C128.453 21.9318 128.646 22.2196 128.888 22.462C129.131 22.7044 129.418 22.8967 129.735 23.0279C130.052 23.1591 130.391 23.2266 130.734 23.2266H135.886C138.457 23.2266 139.69 24.5428 139.69 26.4427C139.69 28.3426 138.486 29.7059 135.886 29.7059H128.53C128.422 29.7069 128.318 29.7505 128.242 29.8272C128.166 29.9039 128.124 30.0076 128.124 30.1156V39.5427C128.124 39.6148 128.152 39.684 128.203 39.735C128.254 39.786 128.323 39.8146 128.395 39.8146H131.013C131.085 39.8137 131.154 39.7847 131.205 39.7339C131.255 39.6831 131.284 39.6145 131.285 39.5427V32.4905H134.306L139.081 38.7232C139.336 39.0568 139.666 39.3266 140.043 39.5115C140.421 39.6964 140.836 39.7915 141.256 39.7892H143.243C143.293 39.7865 143.341 39.7702 143.382 39.7422C143.423 39.7142 143.455 39.6754 143.476 39.6302C143.496 39.585 143.504 39.5351 143.498 39.4858C143.492 39.4364 143.473 39.3897 143.443 39.3505Z" fill="white"/>
<path d="M100.053 20.21H87.9063C87.8101 20.21 87.7179 20.2482 87.6499 20.3162C87.5819 20.3842 87.5437 20.4764 87.5437 20.5725C87.5437 21.2774 87.8237 21.9534 88.3221 22.4518C88.8205 22.9502 89.4965 23.2302 90.2014 23.2302H100.053C100.089 23.2307 100.124 23.224 100.157 23.2105C100.191 23.197 100.221 23.177 100.246 23.1517C100.271 23.1263 100.291 23.0962 100.305 23.0629C100.318 23.0297 100.325 22.9942 100.325 22.9583V20.4819C100.325 20.4098 100.296 20.3406 100.245 20.2896C100.194 20.2386 100.125 20.21 100.053 20.21ZM100.053 36.7689H90.9882C90.9164 36.768 90.8477 36.7391 90.797 36.6883C90.7462 36.6375 90.7172 36.5688 90.7163 36.497V31.5877C90.7163 31.5156 90.7449 31.4464 90.7959 31.3954C90.8469 31.3444 90.9161 31.3158 90.9882 31.3158H99.3674C99.4395 31.3158 99.5087 31.2871 99.5597 31.2361C99.6107 31.1851 99.6393 31.1159 99.6393 31.0438V28.5493C99.6393 28.4772 99.6107 28.408 99.5597 28.357C99.5087 28.306 99.4395 28.2773 99.3674 28.2773H87.9498C87.8418 28.2783 87.7385 28.3219 87.6624 28.3986C87.5864 28.4754 87.5437 28.579 87.5437 28.6871V39.3686C87.5437 39.4763 87.5865 39.5796 87.6626 39.6558C87.7388 39.7319 87.8421 39.7747 87.9498 39.7747H100.053C100.125 39.7747 100.194 39.7461 100.245 39.6951C100.296 39.6441 100.325 39.5749 100.325 39.5028V37.0264C100.322 36.9565 100.292 36.8905 100.241 36.8424C100.19 36.7943 100.123 36.7679 100.053 36.7689Z" fill="white"/>
<path d="M45.6912 15.3406L38.8675 25.4675C38.7569 25.6136 38.7058 25.7963 38.7244 25.9786C38.743 26.1609 38.83 26.3294 38.9678 26.4503C39.1056 26.5711 39.2841 26.6352 39.4673 26.6298C39.6505 26.6244 39.8248 26.5498 39.9552 26.4211L46.6702 20.6198C46.7089 20.5843 46.7572 20.5609 46.8091 20.5526C46.8609 20.5443 46.9141 20.5514 46.962 20.573C47.0099 20.5946 47.0503 20.6298 47.0784 20.6742C47.1064 20.7187 47.1208 20.7703 47.1198 20.8228V39.0569C47.1193 39.1123 47.1018 39.1662 47.0698 39.2114C47.0379 39.2566 46.9928 39.2909 46.9408 39.3098C46.8888 39.3287 46.8322 39.3313 46.7787 39.3172C46.7251 39.3032 46.6772 39.2731 46.6412 39.231L26.3368 14.9382C26.0126 14.5482 25.6071 14.2338 25.1486 14.0171C24.6901 13.8004 24.1898 13.6866 23.6827 13.6837H22.9757C22.0535 13.6837 21.1691 14.05 20.517 14.7021C19.8649 15.3542 19.4985 16.2386 19.4985 17.1608V42.8386C19.4985 43.7608 19.8649 44.6453 20.517 45.2973C21.1691 45.9494 22.0535 46.3158 22.9757 46.3158C23.5699 46.3157 24.1541 46.1634 24.6727 45.8733C25.1913 45.5832 25.6269 45.1651 25.9379 44.6588L32.7617 34.532C32.8723 34.3858 32.9234 34.2032 32.9048 34.0208C32.8862 33.8385 32.7992 33.67 32.6614 33.5492C32.5236 33.4284 32.3451 33.3642 32.1619 33.3696C31.9787 33.375 31.8044 33.4496 31.6739 33.5784L24.959 39.3796C24.9203 39.4151 24.872 39.4385 24.8201 39.4468C24.7682 39.4551 24.7151 39.448 24.6672 39.4264C24.6193 39.4048 24.5789 39.3696 24.5508 39.3252C24.5227 39.2808 24.5083 39.2291 24.5094 39.1766V20.9606C24.5099 20.9053 24.5274 20.8514 24.5593 20.8062C24.5913 20.761 24.6363 20.7267 24.6884 20.7077C24.7404 20.6888 24.797 20.6862 24.8505 20.7003C24.904 20.7144 24.952 20.7445 24.988 20.7866L45.2924 45.0794C45.619 45.4659 46.0261 45.7764 46.4851 45.9893C46.9441 46.2023 47.4441 46.3124 47.9501 46.3121H48.6753C49.1319 46.3121 49.584 46.2222 50.0059 46.0475C50.4278 45.8727 50.8111 45.6166 51.134 45.2937C51.4569 44.9708 51.713 44.5875 51.8877 44.1657C52.0625 43.7438 52.1524 43.2916 52.1524 42.835V17.1608C52.1524 16.7023 52.0618 16.2484 51.8857 15.8251C51.7096 15.4018 51.4515 15.0175 51.1263 14.6944C50.8011 14.3712 50.4152 14.1155 49.9908 13.9421C49.5665 13.7686 49.112 13.6808 48.6535 13.6837C48.0593 13.6837 47.475 13.8361 46.9565 14.1262C46.4379 14.4162 46.0023 14.8344 45.6912 15.3406Z" fill="white"/>
</svg>
