<svg width="163" height="60" viewBox="0 0 163 60" fill="none" xmlns="http://www.w3.org/2000/svg">
<path d="M47.5102 18.6289C44.5169 18.6289 43.2178 20.213 40.8593 20.213C39.3627 20.213 38.4362 19.4679 37.3024 18.6451C35.7311 17.5017 32.6827 14 27.0589 14C19.2742 14 12.4517 20.4915 12.5003 29.5C12.4517 38.5085 19.2742 45 27.0556 45C32.6827 45 35.7279 41.4983 37.2991 40.3548C38.4329 39.5288 39.3627 38.787 40.8561 38.787C43.2145 38.787 44.5103 40.371 47.507 40.371C52.6708 40.371 56.5 35.4311 56.5 29.4741C56.5 23.5171 52.674 18.6289 47.5102 18.6289ZM47.7175 34.9614C46.723 34.9614 46.0686 34.5922 45.2231 34.1354C43.9985 33.4746 42.3593 32.7619 40.6617 32.7619C37.9114 32.7619 35.9158 34.0415 34.4159 34.9939C33.0747 35.8458 31.74 36.701 29.4432 36.701C25.8214 36.701 22.6368 33.5913 22.6368 29.5C22.6368 25.4088 25.8214 22.2991 29.4432 22.2991C31.74 22.2991 33.0747 23.1542 34.4159 24.0061C35.9158 24.9585 37.9114 26.2381 40.6617 26.2381C42.3593 26.2381 43.9985 25.5221 45.2231 24.8646C46.0686 24.4078 46.723 24.0386 47.7175 24.0386C50.0857 24.0386 51.8415 26.5425 51.8415 29.5C51.8415 32.4575 50.0824 34.9614 47.7175 34.9614Z" fill="white"/>
<path d="M101.884 39.3506C96.8935 39.3506 92.8343 35.3951 92.8343 30.5322V22.5294C92.8343 21.1319 93.9958 20 95.43 20C96.8642 20 98.0259 21.1319 98.0259 22.5294V30.5322C98.0259 32.6063 99.7553 34.2917 101.884 34.2917C104.013 34.2917 105.742 32.6063 105.742 30.5322V22.5294C105.742 21.1319 106.904 20 108.338 20C109.772 20 110.934 21.1319 110.934 22.5294V30.5322C110.934 35.3951 106.874 39.3506 101.884 39.3506ZM133.31 20C131.152 20 129.039 20.8948 127.843 22.2481C126.645 20.898 124.532 20 122.375 20C117.929 20 114.311 23.5255 114.311 27.8572V36.8211C114.311 38.2187 115.473 39.3506 116.908 39.3506C118.341 39.3506 119.503 38.2187 119.503 36.8211V27.8572C119.503 26.3143 120.792 25.059 122.375 25.059C123.958 25.059 125.246 26.3143 125.246 27.8572V36.8211C125.246 38.2187 126.408 39.3506 127.843 39.3506C129.276 39.3506 130.438 38.2187 130.438 36.8211V27.8572C130.438 26.3143 131.727 25.059 133.31 25.059C134.893 25.059 136.181 26.3143 136.181 27.8572V36.8211C136.181 38.2187 137.343 39.3506 138.778 39.3506C140.211 39.3506 141.373 38.2187 141.373 36.8211V27.8572C141.373 23.5255 137.755 20 133.31 20ZM80.358 29.6753C80.358 35.0093 75.903 39.3506 70.429 39.3506C68.7158 39.3506 66.8857 38.8669 65.6916 38.0289V43.4705C65.6916 44.8681 64.5301 46 63.0959 46C61.6617 46 60.5 44.8681 60.5 43.4705V29.6753C60.5 24.3412 64.955 20 70.429 20C75.903 20 80.358 24.3412 80.358 29.6753ZM75.1664 29.6753C75.1664 27.13 73.0411 25.059 70.429 25.059C67.817 25.059 65.6916 27.13 65.6916 29.6753C65.6916 32.2206 67.817 34.2917 70.429 34.2917C73.0411 34.2917 75.1664 32.2206 75.1664 29.6753ZM88.7426 36.8211V22.5294C88.7426 21.1319 87.581 20 86.1468 20C84.7126 20 83.5509 21.1319 83.5509 22.5294V36.8211C83.5509 38.2187 84.7126 39.3506 86.1468 39.3506C87.581 39.3506 88.7426 38.2187 88.7426 36.8211ZM147.905 34.2948C146.471 34.2948 145.309 35.4268 145.309 36.8243C145.309 38.2218 146.471 39.3538 147.905 39.3538C149.338 39.3538 150.5 38.2218 150.5 36.8243C150.5 35.4268 149.338 34.2948 147.905 34.2948Z" fill="white"/>
</svg>
