<svg width="162" height="60" viewBox="0 0 162 60" fill="none" xmlns="http://www.w3.org/2000/svg">
<path fill-rule="evenodd" clip-rule="evenodd" d="M20 17H46.55V43.55H33.5H20V17ZM22.7 19.7H43.8357V40.85H22.7V19.7ZM29.9 23.3H27.65V32.75H29.9V23.3ZM36.65 23.3H38.9V32.75H36.65V23.3ZM34.4 23.3H32.1214V37.25H34.4V23.3ZM59.1183 26.9H53.75V33.2H54.7885V30.7672H59.1183C60.23 30.7672 61.1369 29.8953 61.1369 28.8266C61.1222 27.7719 60.23 26.9 59.1183 26.9ZM59.1183 29.8813H54.7885V27.7859H59.1183C59.718 27.7859 60.2007 28.25 60.2007 28.8266C60.2007 29.4172 59.718 29.8813 59.1183 29.8813ZM69.2112 26.9L65.7445 33.2H66.8708L67.6314 31.7797H72.1221L72.8827 33.2H74.009L70.5423 26.9H69.2112ZM68.1288 30.8938L69.8841 27.7156L69.9133 27.7719L71.6247 30.8938H68.1288ZM80.0648 26.9V33.2H81.0887V27.9406L81.1472 27.9969L86.179 33.2H87.5101V26.9H86.4716V32.1734L86.4131 32.1172L81.3666 26.9H80.0648ZM94.6337 28.8547H96.6962V27.7859H93.5366V26.9H100.894V27.7859H97.7347V28.8547H99.7972V29.7406H97.7347V33.2H96.6962V29.7406H94.6337V28.8547ZM107.959 30.5H111.836V29.6141H107.959V27.7859H113.796V26.9H106.935V33.2H113.796V32.3141H107.959V30.5ZM136.702 26.9H138.048L141.5 33.2H140.374L139.628 31.7938L139.613 31.7797H135.122L134.362 33.2H133.235L136.702 26.9ZM137.39 27.7156L135.634 30.8938H139.13L137.419 27.7719L137.39 27.7156ZM127.385 28.8266C127.385 29.7688 126.682 30.5703 125.717 30.7391H125.688L127.428 33.2H126.229L124.444 30.7813L124.43 30.7672H121.036V33.2H119.998V26.9H125.366C126.478 26.9 127.385 27.7578 127.385 28.8266ZM121.051 27.7859V29.8813H125.381C125.98 29.8813 126.463 29.4031 126.463 28.8266C126.463 28.25 125.98 27.7859 125.381 27.7859H121.051Z" fill="white"/>
</svg>
