<svg width="162" height="60" viewBox="0 0 162 60" fill="none" xmlns="http://www.w3.org/2000/svg">
<path fill-rule="evenodd" clip-rule="evenodd" d="M33.8366 31.3997C35.3865 27.7823 36.9408 24.1649 38.4728 20.5429C38.6425 20.1415 38.8346 19.9955 39.2678 20.0001C41.2152 20.0229 43.1626 20.0183 45.1055 20.0047C45.4717 20.0001 45.704 20.0548 45.8692 20.4517C48.5625 26.9475 51.2781 33.4343 53.9848 39.9255C54.016 39.9985 54.0071 40.0852 54.025 40.2403C52.8726 40.2403 51.7426 40.2129 50.6171 40.2494C50.09 40.2677 50.0588 39.8617 49.9292 39.5515C47.7943 34.4424 45.6593 29.3287 43.5735 24.1969C43.301 23.5263 42.9794 23.2891 42.2961 23.3484C41.6038 23.4122 40.9606 23.207 40.5944 24.2105C39.7145 26.6419 38.6604 29.0094 37.6778 31.3997C36.4004 31.3997 35.1185 31.3997 33.8366 31.3997Z" fill="white"/>
<path fill-rule="evenodd" clip-rule="evenodd" d="M34.8148 34.9168C33.8947 34.9168 33.0327 34.9168 32.2912 34.9168C31.5364 36.6685 30.7816 38.4202 29.9999 40.2403C31.2639 40.2403 32.3806 40.222 33.5016 40.2494C33.8724 40.2585 34.051 40.1308 34.185 39.8024C34.846 38.1738 35.5294 36.5453 36.2038 34.9168C35.7393 34.9168 35.2704 34.9168 34.8148 34.9168Z" fill="white"/>
<path fill-rule="evenodd" clip-rule="evenodd" d="M73.856 25.8527C74.6019 24.0691 75.3523 22.2855 76.0937 20.4973C76.1741 20.3012 76.2679 20.2282 76.4778 20.2282C77.4158 20.2419 78.3537 20.2373 79.2962 20.2282C79.4704 20.2282 79.5865 20.2556 79.6669 20.4517C80.9666 23.654 82.2753 26.8563 83.5795 30.054C83.5929 30.0905 83.5884 30.1316 83.5974 30.2091C83.0435 30.2091 82.4986 30.1955 81.9537 30.2137C81.6991 30.2228 81.6857 30.0221 81.6232 29.8716C80.5959 27.349 79.5642 24.8264 78.5592 22.2946C78.4297 21.9616 78.2733 21.8476 77.9428 21.875C77.6078 21.9069 77.2997 21.8065 77.121 22.2992C76.6967 23.4989 76.1875 24.6667 75.7141 25.8482C75.0932 25.8527 74.4724 25.8527 73.856 25.8527Z" fill="white"/>
<path fill-rule="evenodd" clip-rule="evenodd" d="M102.933 25.8527C103.679 24.0691 104.429 22.2855 105.17 20.4973C105.251 20.3012 105.345 20.2282 105.554 20.2282C106.492 20.2419 107.43 20.2373 108.373 20.2282C108.547 20.2282 108.663 20.2556 108.743 20.4517C110.043 23.654 111.352 26.8563 112.656 30.054C112.67 30.0905 112.665 30.1316 112.674 30.2091C112.12 30.2091 111.575 30.1955 111.03 30.2137C110.776 30.2228 110.762 30.0221 110.7 29.8716C109.673 27.349 108.641 24.8264 107.636 22.2946C107.506 21.9616 107.35 21.8476 107.019 21.875C106.684 21.9069 106.376 21.8065 106.198 22.2992C105.773 23.4989 105.264 24.6667 104.791 25.8482C104.17 25.8527 103.549 25.8527 102.933 25.8527Z" fill="white"/>
<path fill-rule="evenodd" clip-rule="evenodd" d="M65.6288 25.5973C66.138 25.5973 66.4908 25.5471 66.6874 25.4513C66.8839 25.3555 66.9822 25.1776 66.9822 24.9222V22.1441C66.9822 21.8886 66.8839 21.7107 66.6874 21.6149C66.4908 21.5191 66.138 21.469 65.6288 21.469H62.7703V25.5973H65.6288ZM62.7703 30.1726H60.814V20.137H65.6065C66.4819 20.137 67.1608 20.2419 67.6521 20.4563C68.1434 20.6707 68.4918 21.0219 68.7107 21.51C68.9251 21.9981 69.0323 22.6687 69.0323 23.5263C69.0323 24.726 68.7911 25.5836 68.3087 26.0945C67.8263 26.61 67.0224 26.8654 65.9013 26.8654H62.7703V30.1726Z" fill="white"/>
<path fill-rule="evenodd" clip-rule="evenodd" d="M89.6092 25.3555H92.5571C93.0662 25.3555 93.4146 25.3053 93.6111 25.2095C93.8077 25.1137 93.9059 24.9358 93.9059 24.6804V22.1441C93.9059 21.8886 93.8077 21.7107 93.6111 21.6149C93.4146 21.5191 93.0662 21.469 92.5571 21.469H89.6092V25.3555ZM94.4151 30.1726L92.3829 26.6237H89.6092V30.1726H87.6574V20.137H92.5392C93.4102 20.137 94.0935 20.2419 94.5804 20.4563C95.0672 20.6707 95.4201 21.0219 95.6344 21.51C95.8488 21.9981 95.956 22.6687 95.956 23.5263C95.956 24.3519 95.831 24.9951 95.5764 25.4604C95.3218 25.9257 94.9109 26.2496 94.3347 26.4321L96.5411 30.1726H94.4151Z" fill="white"/>
<path fill-rule="evenodd" clip-rule="evenodd" d="M119.45 30.1726H117.493V20.137H124.148L123.934 21.469H119.45V24.7306H123.367V25.9987H119.45V30.1726Z" fill="white"/>
<path fill-rule="evenodd" clip-rule="evenodd" d="M129.329 30.1726H131.25V20.137H129.329V30.1726Z" fill="white"/>
<path fill-rule="evenodd" clip-rule="evenodd" d="M73.0878 27.5269C72.726 28.3936 72.3598 29.2649 71.9801 30.1681C72.5876 30.1681 73.128 30.159 73.6684 30.1726C73.8471 30.1772 73.9364 30.1133 73.999 29.9537C74.3205 29.1417 74.6466 28.3389 74.9726 27.5314C74.7493 27.5314 74.5215 27.5314 74.3027 27.5314C73.8605 27.5269 73.4406 27.5269 73.0878 27.5269Z" fill="white"/>
<path fill-rule="evenodd" clip-rule="evenodd" d="M103.433 27.5269C102.986 27.5269 102.566 27.5269 102.209 27.5269C101.843 28.3936 101.481 29.2649 101.101 30.1681C101.709 30.1681 102.249 30.159 102.785 30.1726C102.964 30.1772 103.049 30.1133 103.116 29.9537C103.437 29.1417 103.768 28.3389 104.094 27.5269C103.871 27.5269 103.652 27.5269 103.433 27.5269Z" fill="white"/>
<path fill-rule="evenodd" clip-rule="evenodd" d="M66.1737 38.7486V37.2433C66.1737 36.7643 66.2765 36.4176 66.4864 36.1986C66.6963 35.9797 67.0268 35.8748 67.4824 35.8748H68.2462C68.6347 35.8748 68.9251 35.9614 69.1127 36.1302C69.3047 36.299 69.4074 36.5727 69.4298 36.9422C69.4387 37.0562 69.3851 37.1155 69.2645 37.1155C69.1618 37.1155 69.1082 37.0608 69.0993 36.9422C69.0814 36.673 69.0099 36.486 68.8849 36.3811C68.7598 36.2716 68.5454 36.2214 68.2462 36.2214H67.4824C67.2367 36.2214 67.0447 36.2534 66.9018 36.3218C66.7588 36.3857 66.6561 36.4951 66.5936 36.6411C66.531 36.7871 66.4998 36.9924 66.4998 37.2524V38.7486C66.4998 39.0086 66.531 39.2093 66.5936 39.3599C66.6561 39.5058 66.7588 39.6153 66.9018 39.6792C67.0447 39.7431 67.2367 39.7796 67.4869 39.7796H68.2462C68.5454 39.7796 68.7598 39.7248 68.8849 39.6199C69.0099 39.515 69.0814 39.3279 69.0993 39.0542C69.1082 38.9402 69.1618 38.8809 69.2645 38.8809C69.3806 38.8809 69.4387 38.9402 69.4298 39.0588C69.4074 39.4329 69.3047 39.702 69.1127 39.8708C68.9206 40.0396 68.6347 40.1217 68.2462 40.1217H67.4869C67.0313 40.1217 66.6963 40.0122 66.4864 39.7932C66.2809 39.5697 66.1737 39.223 66.1737 38.7486Z" fill="white"/>
<path fill-rule="evenodd" clip-rule="evenodd" d="M77.2729 38.63H79.055L78.1617 36.4176L77.2729 38.63ZM79.9304 39.9575C79.9304 40.0168 79.8947 40.0624 79.8232 40.0943C79.7964 40.108 79.7696 40.1125 79.7428 40.1125C79.6848 40.1125 79.6446 40.0761 79.6178 40.0076L79.1979 38.9676H77.1478L76.728 40.0076C76.6967 40.0761 76.652 40.1125 76.5895 40.1125C76.5672 40.1125 76.5404 40.108 76.5091 40.0943C76.4421 40.0669 76.4108 40.0213 76.4108 39.9483C76.4108 39.9118 76.4153 39.889 76.4242 39.8708L77.983 36.0025C78.0143 35.9158 78.0813 35.8702 78.1706 35.8702H78.184C78.2689 35.8702 78.327 35.9158 78.3672 36.0025L79.9259 39.8708C79.9259 39.9027 79.9304 39.9346 79.9304 39.9575Z" fill="white"/>
<path fill-rule="evenodd" clip-rule="evenodd" d="M89.3859 37.0152C89.3859 36.7369 89.3278 36.5362 89.2072 36.4085C89.0866 36.2807 88.8946 36.2169 88.6266 36.2169H87.3179V38.0096H88.6266C88.8946 38.0096 89.0911 37.9458 89.2072 37.8226C89.3278 37.6994 89.3859 37.4941 89.3859 37.2113V37.0152ZM89.435 36.1667C89.6181 36.3583 89.7119 36.6411 89.7119 37.0152V37.2113C89.7119 37.5854 89.6226 37.8682 89.4395 38.0598C89.2564 38.2514 88.9839 38.3517 88.6266 38.3517H87.3179V39.9438C87.3179 40.0578 87.2643 40.1171 87.1527 40.1171C87.041 40.1171 86.9874 40.0624 86.9874 39.9438V36.0435C86.9874 35.9295 87.041 35.8702 87.1527 35.8702H88.6266C88.9794 35.8747 89.2519 35.9705 89.435 36.1667Z" fill="white"/>
<path fill-rule="evenodd" clip-rule="evenodd" d="M96.8538 40.0715C96.827 40.0396 96.8136 39.9985 96.8136 39.9483V36.0481C96.8136 35.9934 96.827 35.9523 96.8538 35.9249C96.8806 35.893 96.9208 35.8793 96.9699 35.8793C97.0191 35.8793 97.0548 35.893 97.0861 35.9249C97.1128 35.9569 97.1263 35.9979 97.1263 36.0481V39.9483C97.1263 40.0031 97.1128 40.0441 97.0861 40.0715C97.0592 40.1034 97.0191 40.1171 96.9699 40.1171C96.9208 40.1171 96.8851 40.1034 96.8538 40.0715Z" fill="white"/>
<path fill-rule="evenodd" clip-rule="evenodd" d="M105.831 40.0669C105.8 40.035 105.782 39.9939 105.782 39.9438V36.2123H104.438C104.393 36.2123 104.353 36.1941 104.322 36.1621C104.29 36.1302 104.273 36.0891 104.273 36.039C104.273 35.9842 104.29 35.9432 104.322 35.9158C104.353 35.8839 104.393 35.8702 104.438 35.8702H107.457C107.506 35.8702 107.546 35.8839 107.578 35.9158C107.609 35.9477 107.622 35.9888 107.622 36.039C107.622 36.0891 107.609 36.1256 107.578 36.1621C107.546 36.1941 107.506 36.2123 107.457 36.2123H106.113V39.9438C106.113 39.9939 106.099 40.0304 106.068 40.0669C106.037 40.0989 105.997 40.1171 105.947 40.1171C105.903 40.1171 105.863 40.0989 105.831 40.0669Z" fill="white"/>
<path fill-rule="evenodd" clip-rule="evenodd" d="M114.21 38.63H115.993L115.099 36.4176L114.21 38.63ZM116.868 39.9575C116.868 40.0168 116.832 40.0624 116.761 40.0943C116.734 40.108 116.707 40.1125 116.68 40.1125C116.622 40.1125 116.582 40.0761 116.555 40.0076L116.135 38.9676H114.085L113.666 40.0076C113.634 40.0761 113.59 40.1125 113.527 40.1125C113.505 40.1125 113.478 40.108 113.447 40.0943C113.38 40.0669 113.348 40.0213 113.348 39.9483C113.348 39.9118 113.353 39.889 113.362 39.8708L114.921 36.0025C114.952 35.9158 115.019 35.8702 115.108 35.8702H115.122C115.206 35.8702 115.265 35.9158 115.305 36.0025L116.864 39.8708C116.864 39.9027 116.868 39.9346 116.868 39.9575Z" fill="white"/>
<path fill-rule="evenodd" clip-rule="evenodd" d="M123.97 39.9438V36.0435C123.97 35.9295 124.023 35.8702 124.135 35.8702C124.242 35.8702 124.3 35.9295 124.3 36.0435V39.7704H126.221C126.328 39.7704 126.386 39.8297 126.386 39.9438C126.386 40.0578 126.332 40.1171 126.221 40.1171H124.135C124.023 40.1171 123.97 40.0624 123.97 39.9438Z" fill="white"/>
</svg>
