<svg width="163" height="60" viewBox="0 0 163 60" fill="none" xmlns="http://www.w3.org/2000/svg">
<path fill-rule="evenodd" clip-rule="evenodd" d="M44.871 42.0321L38.6879 31.2176C42.5993 29.7927 44.5384 27.3086 44.5384 23.6909C44.5426 19.2696 41.0287 16.4556 35.4336 16.4556H24.5V42.0321H29.3278V31.6553H33.4254L39.349 42.0321H44.871ZM35.4336 20.6932C38.2863 20.6932 39.7134 21.8255 39.7134 24.0541C39.7134 26.2827 38.2849 27.4149 35.4336 27.4149H29.3278V20.6932H35.4336ZM109.005 42.0317V16.9593H104.397V42.0317H109.005ZM99.1277 25.9556C97.1885 24.2379 94.8478 23.3984 92.1415 23.3984C89.4723 23.3984 87.1314 24.2393 85.191 25.9556C83.2518 27.636 82.2665 29.9751 82.2665 32.9714C82.2665 35.9677 83.2518 38.3053 85.191 40.0232C87.1301 41.7036 89.4723 42.5445 92.1415 42.5445C94.8478 42.5445 97.1885 41.7036 99.1277 40.0232C101.104 38.3053 102.089 35.9677 102.089 32.9714C102.089 29.9751 101.103 27.636 99.1277 25.9556ZM88.4855 36.8073C87.4628 35.8214 86.9479 34.5414 86.9479 32.9714C86.9479 31.4001 87.4586 30.1215 88.4855 29.1715C89.5082 28.1856 90.717 27.7106 92.14 27.7106C93.5643 27.7106 94.8092 28.1856 95.8334 29.1715C96.892 30.1215 97.4066 31.4001 97.4066 32.9714C97.4066 34.5428 96.8959 35.8214 95.8334 36.8073C94.8107 37.7572 93.5657 38.2323 92.14 38.2323C90.717 38.2323 89.5109 37.7572 88.4855 36.8073ZM123.881 33.9128V23.909H128.5V34.6805C128.5 38.7718 125.871 42.5428 120.129 42.5428H120.093C114.316 42.5428 111.683 38.8532 111.683 34.6805V23.909H116.299V33.9128C116.299 36.3251 117.569 37.9213 120.093 37.9213C122.576 37.9213 123.881 36.3237 123.881 33.9128ZM77.3608 23.909L72.7524 36.1856L68.1441 23.909H63.2431L70.5967 42.0319H74.9139L82.2659 23.909H77.3608ZM60.7798 25.9556C62.4263 27.6733 63.2668 29.8287 63.2668 32.4592H63.2656V34.0678H49.2969C49.5896 36.8446 51.5287 38.5981 54.2709 38.5981C56.5014 38.5981 58.1492 37.5018 59.2811 35.2732L62.7175 37.2464C61.0021 40.7909 58.1866 42.5445 54.1979 42.5445C51.6017 42.5445 49.4073 41.6677 47.5774 39.8767C45.7845 38.0872 44.8708 35.7855 44.8708 32.9714C44.8708 30.1574 45.7831 27.8929 47.6133 26.102C49.4791 24.3125 51.748 23.3984 54.4173 23.3984C57.0147 23.3984 59.1333 24.2379 60.7798 25.9556ZM59.0229 30.7055C58.5854 28.3665 56.8644 26.9056 54.2682 26.9056C51.8902 26.9056 49.9911 28.5501 49.2942 30.7055H59.0229ZM130.94 37.1716C130.94 40.1389 133.346 42.5428 136.312 42.5428H139.5V38.4502H137.126C136.254 38.4502 135.549 37.746 135.549 36.8762V27.6428H139.5V23.916H135.549V19.0128H130.94V37.1716Z" fill="white"/>
</svg>
