<svg width="163" height="60" viewBox="0 0 163 60" fill="none" xmlns="http://www.w3.org/2000/svg">
<path d="M27.8484 37.4195C26.7331 36.1803 24.5771 32.8843 24.8745 29.613C25.2198 25.8141 27.8112 23.2985 28.7734 22.3645C28.8469 22.2931 28.9109 22.231 28.9637 22.1782L32.4952 18.6467C33.1767 17.9652 34.168 16.0817 32.681 14C29.5213 16.6022 22.9787 22.7358 22.0865 26.4532C20.9713 31.0999 21.5289 35.9325 26.3615 40.5792L27.8484 42.0662L35.2832 34.8173C36.1506 33.8879 37.6623 31.3601 36.7702 28.6836L27.8484 37.4195Z" fill="white"/>
<path d="M37.4145 23.4793C38.5297 24.7184 40.6858 28.0145 40.3884 31.2858C40.043 35.0847 37.4517 37.6002 36.4894 38.5343L36.4887 38.535C36.4155 38.6061 36.3518 38.6679 36.2992 38.7205L32.7677 42.252C32.0862 42.9336 31.0949 44.817 32.5818 46.8988C35.7416 44.2966 42.2842 38.1629 43.1763 34.4456C44.2915 29.7988 43.7339 24.9663 38.9013 20.3195L37.4145 18.8326L29.9796 26.0815C29.1122 27.0108 27.6005 29.5386 28.4927 32.2151L37.4145 23.4793Z" fill="white"/>
<path d="M57.1146 36.9789C58.1635 37.2726 59.2459 37.4195 60.362 37.4195C61.6528 37.4195 62.7487 37.2259 63.6497 36.8387C64.5506 36.4516 65.2229 35.931 65.6667 35.2768C66.1238 34.6093 66.3524 33.8751 66.3524 33.0741C66.3524 32.1397 66.1037 31.3987 65.6061 30.8514C65.1221 30.3041 64.5371 29.9036 63.8514 29.6499C63.1656 29.3963 62.2848 29.1426 61.2091 28.889C60.1737 28.6621 59.4005 28.4351 58.8896 28.2082C58.3921 27.9679 58.1433 27.6074 58.1433 27.1268C58.1433 26.6463 58.3584 26.2591 58.7887 25.9654C59.2325 25.6717 59.9115 25.5249 60.8259 25.5249C62.1302 25.5249 63.4345 25.892 64.7388 26.6262L65.7473 24.1632C65.1019 23.7627 64.3489 23.4557 63.4883 23.2421C62.6277 23.0285 61.747 22.9217 60.8461 22.9217C59.5552 22.9217 58.4593 23.1153 57.5584 23.5024C56.6709 23.8895 56.0053 24.4169 55.5615 25.0843C55.1178 25.7385 54.8959 26.4727 54.8959 27.287C54.8959 28.2215 55.138 28.9691 55.6221 29.5298C56.1196 30.0905 56.7112 30.4976 57.397 30.7513C58.0828 31.0049 58.9635 31.2586 60.0393 31.5122C60.7385 31.6724 61.2898 31.8193 61.6932 31.9528C62.11 32.0863 62.4462 32.2665 62.7017 32.4934C62.9706 32.707 63.1051 32.9807 63.1051 33.3144C63.1051 33.7683 62.8832 34.1354 62.4395 34.4158C61.9957 34.6828 61.31 34.8163 60.3821 34.8163C59.5485 34.8163 58.7148 34.6828 57.8811 34.4158C57.0474 34.1488 56.328 33.795 55.7229 33.3545L54.6136 35.7975C55.2456 36.2781 56.0792 36.6719 57.1146 36.9789Z" fill="white"/>
<path d="M67.8032 25.8052H72.3213V37.1792H75.5888V25.8052H80.1069V23.162H67.8032V25.8052Z" fill="white"/>
<path fill-rule="evenodd" clip-rule="evenodd" d="M91.4627 34.1755H84.9075L83.6569 37.1792H80.3087L86.6017 23.162H89.8289L96.1421 37.1792H92.7132L91.4627 34.1755ZM90.434 31.7125L88.1951 26.3459L85.9563 31.7125H90.434Z" fill="white"/>
<path d="M101.863 33.6348L103.759 31.6724L108.277 37.1792H112.089L105.897 29.4096L111.746 23.162H108.115L101.863 29.71V23.162H98.6154V37.1792H101.863V33.6348Z" fill="white"/>
<path d="M125.486 34.576V37.1792H114.554V23.162H125.224V25.7652H117.802V28.8089H124.357V31.332H117.802V34.576H125.486Z" fill="white"/>
<path fill-rule="evenodd" clip-rule="evenodd" d="M135.368 33.2744L138.091 37.1792H141.6L138.433 32.6736C139.361 32.2731 140.074 31.6991 140.571 30.9515C141.082 30.1906 141.338 29.2895 141.338 28.2482C141.338 27.2069 141.089 26.3058 140.592 25.5449C140.094 24.784 139.381 24.1966 138.454 23.7827C137.539 23.3689 136.457 23.162 135.206 23.162H129.095V37.1792H132.362V33.2744H135.368ZM137.264 26.446C137.775 26.8599 138.03 27.4606 138.03 28.2482C138.03 29.0225 137.775 29.6232 137.264 30.0504C136.753 30.4776 136.006 30.6912 135.025 30.6912H132.362V25.8052H135.025C136.006 25.8052 136.753 26.0188 137.264 26.446Z" fill="white"/>
</svg>
