<svg width="162" height="60" viewBox="0 0 162 60" fill="none" xmlns="http://www.w3.org/2000/svg">
<path d="M59.9299 26.9386H56.4819V24.9065H65.8713V26.9386H62.4233V35.6817H59.9299V26.9386ZM68.2335 28.4932C68.5207 28.0929 68.9057 27.7901 69.3878 27.5848C69.8803 27.3798 70.4446 27.277 71.0809 27.277V29.4938C70.8143 29.4732 70.6347 29.4629 70.5421 29.4629C69.8547 29.4629 69.3159 29.6579 68.926 30.0479C68.536 30.4275 68.341 31.0022 68.341 31.7719V35.6817H65.9398V27.4001H68.2335V28.4932ZM79.9884 27.4001V35.6817H77.71V34.6964C77.3919 35.0555 77.0122 35.3327 76.571 35.5277C76.1298 35.7123 75.6526 35.8048 75.1395 35.8048C74.0517 35.8048 73.1899 35.4917 72.5536 34.8658C71.9174 34.2399 71.5993 33.3112 71.5993 32.0797V27.4001H74.0005V31.7256C74.0005 33.0596 74.5598 33.7268 75.6782 33.7268C76.2529 33.7268 76.7147 33.5421 77.0638 33.1724C77.4125 32.7927 77.5869 32.2337 77.5869 31.4947V27.4001H79.9884ZM84.0756 35.8048C83.3878 35.8048 82.7156 35.7227 82.0591 35.5586C81.4023 35.3839 80.8788 35.1686 80.4888 34.9121L81.2894 33.1881C81.6588 33.424 82.105 33.619 82.6285 33.7727C83.1519 33.9165 83.665 33.9883 84.1678 33.9883C85.1837 33.9883 85.6918 33.7371 85.6918 33.234C85.6918 32.9981 85.553 32.8287 85.2762 32.7262C84.999 32.6237 84.5731 32.5362 83.9984 32.4643C83.3213 32.3618 82.7619 32.2437 82.3207 32.1106C81.8794 31.9772 81.4948 31.7409 81.1663 31.4025C80.8482 31.0638 80.6892 30.5816 80.6892 29.9554C80.6892 29.4323 80.8379 28.9704 81.1354 28.5701C81.4432 28.1595 81.8844 27.8414 82.4591 27.6158C83.0441 27.3901 83.7315 27.277 84.5218 27.277C85.1068 27.277 85.6865 27.3439 86.2611 27.4773C86.8461 27.6004 87.3286 27.7748 87.7083 28.0004L86.9077 29.7091C86.1793 29.2988 85.384 29.0935 84.5218 29.0935C84.0087 29.0935 83.6241 29.1654 83.3675 29.3088C83.111 29.4526 82.9825 29.6372 82.9825 29.8632C82.9825 30.1197 83.1213 30.2991 83.3981 30.4019C83.6753 30.5044 84.1165 30.6019 84.7218 30.6944C85.3993 30.8072 85.9533 30.9303 86.3843 31.0638C86.8155 31.1869 87.1899 31.4178 87.508 31.7566C87.8261 32.095 87.9851 32.5671 87.9851 33.1724C87.9851 33.6855 87.8314 34.1424 87.5236 34.5424C87.2155 34.9427 86.7639 35.2558 86.169 35.4814C85.584 35.697 84.8862 35.8048 84.0756 35.8048ZM93.8845 35.2814C93.6486 35.4558 93.3561 35.5892 93.0071 35.6817C92.6687 35.7636 92.3093 35.8048 91.9296 35.8048C90.9447 35.8048 90.18 35.5533 89.6363 35.0505C89.1025 34.5477 88.8357 33.8086 88.8357 32.834V29.4323H87.5582V27.5848H88.8357V25.5686H91.2368V27.5848H93.2996V29.4323H91.2368V32.8031C91.2368 33.1521 91.3243 33.424 91.4987 33.619C91.6834 33.8037 91.9399 33.8962 92.2684 33.8962C92.648 33.8962 92.9711 33.7933 93.238 33.588L93.8845 35.2814ZM114.2 24.9065L110.675 35.6817H107.996L105.626 28.3854L103.178 35.6817H100.515L96.9752 24.9065H99.561L101.993 32.48L104.533 24.9065H106.842L109.305 32.5415L111.814 24.9065H114.2ZM117.223 27.277C118.505 27.277 119.491 27.5848 120.178 28.2007C120.866 28.806 121.209 29.7244 121.209 30.9559V35.6817H118.962V34.6502C118.511 35.4198 117.669 35.8048 116.438 35.8048C115.801 35.8048 115.247 35.697 114.775 35.4814C114.313 35.2661 113.959 34.9683 113.713 34.5886C113.467 34.209 113.344 33.778 113.344 33.2955C113.344 32.5262 113.631 31.9206 114.206 31.4794C114.791 31.0381 115.689 30.8175 116.9 30.8175H118.808C118.808 30.2941 118.649 29.8938 118.331 29.6169C118.013 29.3294 117.536 29.1857 116.9 29.1857C116.458 29.1857 116.022 29.2576 115.591 29.4013C115.17 29.5347 114.811 29.7194 114.514 29.9554L113.651 28.2776C114.103 27.9595 114.642 27.7132 115.268 27.5389C115.904 27.3642 116.556 27.277 117.223 27.277ZM117.038 34.1883C117.449 34.1883 117.813 34.0961 118.131 33.9115C118.449 33.7165 118.675 33.4343 118.808 33.0649V32.2181H117.161C116.176 32.2181 115.683 32.5415 115.683 33.1881C115.683 33.4959 115.801 33.7421 116.037 33.9268C116.284 34.1011 116.617 34.1883 117.038 34.1883ZM122.459 24.2603H124.86V35.6817H122.459V24.2603ZM126.165 24.2603H128.567V35.6817H126.165V24.2603ZM137.984 31.5715C137.984 31.6025 137.969 31.8181 137.938 32.2181H131.673C131.786 32.7312 132.052 33.1365 132.473 33.4343C132.894 33.7318 133.417 33.8805 134.043 33.8805C134.474 33.8805 134.854 33.819 135.182 33.6958C135.521 33.5624 135.834 33.3574 136.121 33.0802L137.399 34.4655C136.619 35.3583 135.48 35.8048 133.982 35.8048C133.048 35.8048 132.222 35.6252 131.503 35.2661C130.785 34.8964 130.231 34.3886 129.841 33.7421C129.451 33.0956 129.256 32.3618 129.256 31.5409C129.256 30.7303 129.446 30.0016 129.826 29.3551C130.216 28.6985 130.744 28.1904 131.411 27.8314C132.088 27.4617 132.842 27.277 133.674 27.277C134.485 27.277 135.218 27.4517 135.875 27.8004C136.532 28.1495 137.045 28.6523 137.414 29.3088C137.794 29.9554 137.984 30.7097 137.984 31.5715ZM133.689 29.0935C133.145 29.0935 132.689 29.2472 132.319 29.5554C131.95 29.8632 131.724 30.2838 131.642 30.8175H135.721C135.639 30.2941 135.413 29.8785 135.044 29.5707C134.674 29.2526 134.223 29.0935 133.689 29.0935ZM144 35.2814C143.764 35.4558 143.472 35.5892 143.123 35.6817C142.784 35.7636 142.425 35.8048 142.045 35.8048C141.06 35.8048 140.296 35.5533 139.752 35.0505C139.218 34.5477 138.951 33.8086 138.951 32.834V29.4323H137.674V27.5848H138.951V25.5686H141.353V27.5848H143.415V29.4323H141.353V32.8031C141.353 33.1521 141.44 33.424 141.614 33.619C141.799 33.8037 142.055 33.8962 142.384 33.8962C142.764 33.8962 143.087 33.7933 143.354 33.588L144 35.2814Z" fill="white"/>
<path fill-rule="evenodd" clip-rule="evenodd" d="M28.4957 14.1782H38.9287C44.9103 14.1782 49.7594 19.0273 49.7594 25.0089V35.4419C49.7594 41.4235 44.9103 46.2726 38.9287 46.2726H28.4957C22.5141 46.2726 17.665 41.4235 17.665 35.4419V25.0089C17.665 19.0273 22.5141 14.1782 28.4957 14.1782ZM34.4536 20.1029C34.0824 19.7929 33.5426 19.7929 33.1715 20.1028C30.4266 22.3954 27.2966 22.3775 26.0961 22.3706C26.0362 22.3702 25.9812 22.3699 25.9312 22.3699C25.6633 22.3699 25.4067 22.4774 25.2187 22.6682C25.0308 22.859 24.9272 23.1172 24.9313 23.385C24.9885 27.1805 25.14 29.8888 25.4373 31.8735C25.7345 33.8567 26.1901 35.215 26.9245 36.238C27.6643 37.2685 28.6157 37.8537 29.6308 38.4153C29.8076 38.5131 29.9879 38.611 30.1725 38.7112C31.0631 39.1946 32.0536 39.7324 33.2296 40.576C33.578 40.8259 34.047 40.8259 34.3954 40.576C35.5725 39.7315 36.5644 39.1935 37.4563 38.7097C37.64 38.6101 37.8195 38.5127 37.9955 38.4155C39.0113 37.854 39.9641 37.269 40.7053 36.2389C41.4413 35.2159 41.8985 33.8576 42.1968 31.874C42.4953 29.8891 42.6474 27.1806 42.7047 23.385C42.7087 23.1172 42.6052 22.859 42.4172 22.6682C42.2293 22.4774 41.9726 22.3699 41.7048 22.3699C41.6543 22.3699 41.5987 22.3702 41.5384 22.3706L41.5381 22.3706C40.3277 22.3774 37.1981 22.3952 34.4536 20.1029ZM27.4152 31.5771C27.164 29.9005 27.0167 27.6037 26.9491 24.3639C28.4969 24.3142 31.2338 23.9941 33.8125 22.1356C36.3943 23.9964 39.1351 24.3149 40.6868 24.3641C40.6191 27.6036 40.4711 29.9002 40.219 31.5766C39.9413 33.4233 39.5501 34.42 39.0819 35.0707C38.6188 35.7143 38.0114 36.1215 37.028 36.665C36.8687 36.7531 36.7006 36.8441 36.5242 36.9397C35.7665 37.3503 34.8548 37.8442 33.8125 38.5458C32.7716 37.8452 31.8613 37.3515 31.1049 36.9413L31.1045 36.9411C30.9274 36.8451 30.7588 36.7537 30.599 36.6652C29.6169 36.1219 29.0109 35.7148 28.5492 35.0716C28.0821 34.4209 27.692 33.4242 27.4152 31.5771Z" fill="white"/>
</svg>
